<?xml version="1.0" standalone="no"?>
<!DOCTYPE svg PUBLIC "-//W3C//DTD SVG 1.1//EN" "http://www.w3.org/Graphics/SVG/1.1/DTD/svg11.dtd" >
<svg xmlns="http://www.w3.org/2000/svg">
<metadata></metadata>
<defs>
<font id="alegreya_scblack_italic" horiz-adv-x="1353" >
<font-face units-per-em="2048" ascent="1638" descent="-410" />
<missing-glyph horiz-adv-x="280" />
<glyph horiz-adv-x="0" />
<glyph horiz-adv-x="682" />
<glyph unicode=" "  horiz-adv-x="280" />
<glyph unicode="&#x09;" horiz-adv-x="280" />
<glyph unicode="&#xa0;" horiz-adv-x="280" />
<glyph unicode="!" horiz-adv-x="563" d="M33 145q0 110 64.5 177t170.5 67q79 0 123.5 -44t44.5 -122q0 -109 -64.5 -175t-168.5 -66q-83 0 -126.5 42.5t-43.5 120.5zM160 543l30 823l43 49l392 53l45 -53l-256 -880l-217 -33z" />
<glyph unicode="&#x22;" horiz-adv-x="692" d="M106 834q16 109 27 231t14 189l3 67l276 29l14 -25q-59 -224 -139 -453l-158 -51zM451 834q15 109 25 231t13 189l3 67l276 29l14 -25q-59 -224 -139 -453l-156 -51z" />
<glyph unicode="#" horiz-adv-x="1112" d="M-6 322l53 215l184 -2l25 92l16 67h-153l-15 27l54 215l178 -2l61 240l226 18l26 -14l-74 -244h158l62 240l223 18l26 -14l-71 -238l168 6l10 -31l-43 -217l-205 -2l-8 -32l-35 -123l170 6l10 -31l-43 -217l-200 -2l-54 -205l-221 -29l-24 19l61 215h-160l-51 -205 l-221 -29l-25 19l60 213h-154zM465 535h162l24 92l19 69h-164l-6 -32z" />
<glyph unicode="$" horiz-adv-x="909" d="M-16 82q53 164 71 260l234 16q-6 -61 24.5 -102t89.5 -41q43 0 69 14t26 37q0 17 -11 32t-37 29.5t-46.5 23.5t-62.5 26l-15 6q-57 25 -92.5 45t-78 54.5t-64 81.5t-21.5 106q0 145 107 242t296 126l70 281l243 29l11 -19l-70 -282q62 -5 122.5 -15.5t90.5 -17.5l29 -8 l18 -39q-49 -136 -80 -279l-217 -14l-20 14q4 31 4 33q0 42 -27 65t-72 23q-41 0 -66.5 -18t-25.5 -46t27.5 -48t87.5 -46q121 -49 158 -69q152 -91 155 -234q0 -152 -116.5 -245t-327.5 -115l-74 -297l-239 -27l-15 12l76 316q-57 8 -110.5 23t-78.5 25l-24 11z" />
<glyph unicode="%" horiz-adv-x="1515" d="M49 889q0 218 107 339.5t278 121.5q122 0 189 -74t67 -219q0 -220 -105 -341.5t-276 -121.5q-123 0 -191.5 74.5t-68.5 220.5zM154 -80q227 329 397 598l547 873l178 -66l20 -49q-367 -568 -553 -852l-387 -610l-190 71zM217 961q0 -84 148 -84q85 0 119 23t34 75 q0 44 -35.5 64t-111.5 20q-84 0 -119 -22.5t-35 -75.5zM866 270q0 218 107 339.5t278 121.5q122 0 189 -74t67 -219q0 -220 -105 -341.5t-276 -121.5q-123 0 -191.5 74.5t-68.5 220.5zM1034 342q0 -84 148 -84q85 0 119 23t34 75q0 44 -35.5 64t-111.5 20q-84 0 -119 -22.5 t-35 -75.5z" />
<glyph unicode="&#x26;" horiz-adv-x="1374" d="M45 459q0 141 66.5 264t173.5 194.5t225 71.5q69 0 118.5 -39t49.5 -88v-22l14 -9q80 117 122.5 214.5t72.5 240.5l31 33h108q109 -183 109 -240q0 -26 -33 -78q-170 -229 -344.5 -395.5t-380.5 -279.5q94 -97 252 -97q236 0 299 197l-25 2q-19 0 -41.5 -10t-35.5 -20 l-13 -9h-12l-72 121l2 8l150 135l34 11q34 0 180.5 -12.5t166.5 -12.5q25 0 58.5 10.5t53.5 21.5l21 11h12l68 -119v-10l-146 -135l-39 -12l-119 6q-82 -190 -256 -313.5t-362 -123.5q-232 0 -370 133.5t-138 350.5zM293 545q0 -39 10 -84q109 66 138.5 98t29.5 76 q0 70 -57 70q-55 0 -88 -42t-33 -118z" />
<glyph unicode="'" horiz-adv-x="350" d="M106 834q16 109 27 231t14 189l3 67l276 29l14 -25q-59 -224 -139 -453l-158 -51z" />
<glyph unicode="(" horiz-adv-x="614" d="M86 334l43 354q12 102 41.5 193t67 154t79.5 115.5t81.5 84.5t71.5 54t52 31l19 9h37l90 -131l-4 -18q-7 -4 -18.5 -13t-42.5 -46t-56.5 -84t-52.5 -132t-39 -186l-43 -354q-13 -118 -9 -205.5t21 -147.5t35 -97t33 -53l14 -16l-2 -22l-144 -123h-24q-13 6 -33.5 18 t-70.5 62.5t-85.5 115t-56.5 181.5t-4 256z" />
<glyph unicode=")" horiz-adv-x="622" d="M-47 -168l4 18q7 4 18.5 13t42.5 46t57 84t53 132t40 186l43 355q13 118 9 205.5t-21 147.5t-35 96.5t-32 52.5l-15 16l2 22l141 123h27q13 -6 33.5 -18t70.5 -62.5t85 -115t56.5 -181.5t4.5 -256l-45 -354q-12 -102 -41.5 -193t-67 -154t-79.5 -115.5t-81.5 -84.5 t-71.5 -54t-51 -31l-20 -9h-35z" />
<glyph unicode="*" horiz-adv-x="712" d="M104 1198q0 111 29 191l23 6q90 -50 215 -144l-19 -100l-18 -14zM141 928l2 24q74 70 201 160l92 -49l6 -19q-29 -44 -61 -94t-49 -78l-17 -28q-106 33 -174 84zM375 1507q106 33 192 33l15 -20q-23 -100 -72 -250l-102 -10l-17 10q-2 52 -6 111t-7 93zM469 1047l76 71 h22q31 -41 68.5 -87t59.5 -71l22 -26q-63 -92 -135 -139l-23 10q-43 90 -90 242zM526 1237l9 23l221 83q67 -90 90 -172l-17 -16q-11 -2 -32 -4t-88.5 -5.5t-137.5 -2.5z" />
<glyph unicode="+" horiz-adv-x="1005" d="M18 387l70 277q142 -2 287 -2l41 321l272 27l29 -15q-30 -179 -53 -333l319 12l10 -31l-61 -278l-305 -3l-33 -288l-272 -37l-23 18q19 151 39 307l-305 -2z" />
<glyph unicode="," horiz-adv-x="473" d="M-70 -104q60 43 95.5 102t35.5 115q0 41 -16.5 83t-42.5 72l6 29q117 90 209 90q78 0 126 -56.5t48 -150.5q0 -107 -92 -223t-250 -207l-119 94v52z" />
<glyph unicode="-" horiz-adv-x="643" d="M55 397l47 217l306 35q58 6 100.5 12t55.5 9l14 2l18 -37l-53 -221l-467 -54z" />
<glyph unicode="." horiz-adv-x="473" d="M-2 145q0 110 64.5 177t170.5 67q79 0 122.5 -44t43.5 -122q0 -109 -64.5 -175t-168.5 -66q-83 0 -125.5 42t-42.5 121z" />
<glyph unicode="/" horiz-adv-x="653" d="M-78 -195q141 348 256 658l342 919h244l31 -41q-224 -570 -351 -901l-245 -665h-258z" />
<glyph unicode="0" horiz-adv-x="921" d="M16 395q0 300 146.5 480t392.5 180q174 0 265 -108t91 -310q0 -303 -143.5 -482.5t-390.5 -179.5q-176 0 -268.5 109t-92.5 311zM246 500q0 -133 209 -133q118 0 171.5 38t53.5 117q0 133 -211 133q-223 0 -223 -155z" />
<glyph unicode="1" horiz-adv-x="751" d="M-41 -20l37 165q94 9 139 42t53 98l52 411q8 71 -7.5 94t-72.5 23l-92 -6l-17 20l35 154q81 7 268 29q83 9 174 20.5t137.5 18.5t47.5 6l22 -88q-33 -24 -55 -58t-43 -90q-27 -79 -42.5 -128.5t-34.5 -169t-19 -245.5q0 -96 63 -96l88 4l6 -12l-51 -184q-203 12 -309 12 q-66 0 -162 -5.5t-157 -10.5t-60 -4z" />
<glyph unicode="2" horiz-adv-x="980" d="M-49 -12l2 102l158 158q179 188 242 271t67 140q12 93 -82 93q-98 0 -211 -129h-37l-24 213q242 219 475 219q147 0 235 -70t88 -186q0 -47 -4.5 -74t-22.5 -67.5t-59 -88.5t-108.5 -117t-177.5 -171l8 -19h55q73 0 112.5 42.5t61.5 144.5l240 18q-78 -273 -109 -455 l-39 -37q-512 25 -719 25z" />
<glyph unicode="3" horiz-adv-x="894" d="M-47 80l51 47q64 -37 178 -37q104 0 168 34.5t64 92.5q0 54 -49.5 78t-157.5 24l-23 31l2 185l133 26q62 25 97 67t35 91q0 31 -20.5 49t-55.5 18q-83 0 -217 -98q-5 0 -15.5 -1t-15.5 -1l-41 211q99 68 223 113t215 45q141 0 225.5 -61.5t84.5 -162.5q0 -98 -70 -177.5 t-186 -114.5l-3 -23q121 -38 185.5 -106t64.5 -156q0 -109 -104.5 -214.5t-269 -170t-332.5 -64.5q-103 0 -137.5 60t-28.5 215z" />
<glyph unicode="4" horiz-adv-x="978" d="M-45 113l27 204l591 734q2 0 9.5 2t9.5 2l287 -25l-84 -676h135l18 -30l-49 -232q-53 2 -133 4l-18 -243l-25 -23l-340 -25l-16 25q25 141 45 276q-277 7 -457 7zM260 354h184l33 260h-22z" />
<glyph unicode="5" horiz-adv-x="839" d="M-84 80l51 47q67 -37 178 -37q100 0 165 35.5t65 89.5t-69.5 83t-239.5 48l-17 23q31 132 62 285t46 240l15 87l16 16l398 13q55 1 83.5 18.5t51.5 63.5l162 10l-103 -367l-45 -39q-151 17 -348 17l-29 -107q227 -37 326.5 -106.5t99.5 -192.5q0 -124 -101 -241 t-264.5 -189t-336.5 -72q-102 0 -139 61.5t-27 213.5z" />
<glyph unicode="6" horiz-adv-x="942" d="M16 367q0 108 28.5 206.5t76 174t110 142t131 114t137 86.5t131 64t110 42t76.5 24l28 7l24 -15l41 -165q-9 -3 -26 -10t-66 -33t-95.5 -56.5t-106.5 -82t-107 -109.5l8 -23l115 43q133 0 208.5 -82.5t75.5 -224.5q0 -224 -144.5 -359t-385.5 -135q-172 0 -270.5 106 t-98.5 286zM354 360q0 -145 88 -145q69 0 96 47.5t27 145.5q0 122 -80 122q-55 0 -112 -34q-2 -10 -8 -40.5t-8.5 -51t-2.5 -44.5z" />
<glyph unicode="7" horiz-adv-x="866" d="M25 539q61 272 98 489l14 10q117 -8 242 -8h444l99 -143q-57 -101 -100.5 -180.5t-87.5 -163.5t-67 -127.5t-79.5 -154.5t-83.5 -163l-113 -293h-57l-242 78l-18 58l479 796l-176 -18q-88 -9 -120.5 -39t-61.5 -129z" />
<glyph unicode="8" horiz-adv-x="937" d="M6 254q0 110 62.5 181t154.5 110q-131 112 -131 276q0 113 68 207t181.5 146.5t246.5 52.5q150 0 249 -79.5t99 -197.5q0 -182 -191 -280q136 -97 136 -256q0 -185 -147 -312t-357 -127q-165 0 -268 78.5t-103 200.5zM315 317q0 -54 29 -87t76 -33q53 0 81.5 28t28.5 76 q0 37 -37 68t-115 77q-11 6 -16 9q-47 -62 -47 -138zM440 893q0 -42 34 -71t104 -64q47 68 47 135q0 45 -22.5 70.5t-63.5 25.5q-44 0 -71.5 -27t-27.5 -69z" />
<glyph unicode="9" horiz-adv-x="942" d="M33 561q0 224 144.5 359t385.5 135q172 0 271.5 -106t99.5 -285q0 -108 -28.5 -206.5t-76 -174t-110 -142t-131 -114t-137 -87t-131 -64.5t-110 -42t-76.5 -24l-28 -7l-24 15l-41 166q9 3 26 10t65.5 32t95 55.5t106 82t106.5 110.5l-8 23l-115 -43q-132 0 -208 83 t-76 224zM383 623q0 -123 80 -123q53 0 110 32q21 74 21 138q0 145 -86 145q-70 0 -97.5 -47t-27.5 -145z" />
<glyph unicode=":" horiz-adv-x="473" d="M8 145q0 110 65 177t171 67q79 0 122.5 -44t43.5 -122q0 -108 -64.5 -174.5t-169.5 -66.5q-83 0 -125.5 42t-42.5 121zM74 688q0 110 64.5 177t170.5 67q79 0 122.5 -44t43.5 -122q0 -109 -64.5 -175.5t-168.5 -66.5q-82 0 -125 42.5t-43 121.5z" />
<glyph unicode=";" horiz-adv-x="473" d="M-61 -104q60 43 95.5 102t35.5 115q0 41 -16.5 83t-43.5 72l6 29q117 90 209 90q78 0 126 -56.5t48 -150.5q0 -107 -92 -223t-250 -207l-118 94v52zM74 688q0 110 64.5 177t170.5 67q79 0 122.5 -44t43.5 -122q0 -109 -64.5 -175.5t-168.5 -66.5q-82 0 -125 42.5 t-43 121.5z" />
<glyph unicode="&#x3c;" horiz-adv-x="847" d="M39 408l39 313l371 158q71 30 149 66t120 57l42 20l35 -23l43 -215q-190 -73 -344 -139l-181 -80l-2 -16l183 -100l268 -132l14 -43l-137 -188q-121 59 -254 129l-334 162z" />
<glyph unicode="=" horiz-adv-x="1005" d="M-8 182l71 277q277 -2 453 -2q71 0 181.5 3t185.5 6l75 3l11 -31l-62 -278l-450 -2l-449 -2zM43 592l70 276q276 -2 454 -2q70 0 180.5 3t185.5 7l75 3l10 -31l-60 -279l-452 -2l-449 -2z" />
<glyph unicode="&#x3e;" horiz-adv-x="847" d="M27 324q192 73 344 139l182 80l2 16l-184 100l-269 132l-12 43l137 188q119 -59 252 -129l334 -162l12 -31l-37 -313l-370 -158q-71 -30 -149.5 -66t-121.5 -57l-43 -20l-32 23z" />
<glyph unicode="?" horiz-adv-x="759" d="M90 145q0 110 65 177t171 67q81 0 124.5 -43.5t43.5 -122.5q0 -108 -64.5 -174.5t-169.5 -66.5q-83 0 -126.5 42.5t-43.5 120.5zM164 1206l112 242l37 18q242 -6 396.5 -104.5t154.5 -243.5q0 -108 -79.5 -198t-295.5 -222l-6 -12l-4 -141l-20 -29l-246 -41l-29 17 l-14 272l10 31l201 96q108 55 108 127q0 66 -77 105t-224 46z" />
<glyph unicode="@" horiz-adv-x="1787" d="M14 346q0 162 53 318t148 283.5t219 225t275.5 151.5t308.5 54q361 0 568.5 -177t207.5 -484q0 -340 -206 -541t-556 -201q-49 0 -79.5 30.5t-30.5 80.5q0 28 49 238h-21q-85 -147 -147 -226.5t-125 -122.5q-146 0 -227.5 85t-81.5 237q0 118 46.5 240t119.5 216t168 154 t186 60l147 -41l11 41l38 24l275 -24l16 -47q-98 -430 -141 -691l14 -16q141 0 233.5 119.5t92.5 302.5q0 246 -166 387t-455 141q-152 -1 -285 -58t-227.5 -156t-149 -237.5t-54.5 -295.5q0 -350 214.5 -535.5t620.5 -185.5q0 -9 -1 -27.5t-1 -27.5l-76 -132 q-459 0 -720 223t-261 615zM743 424q0 -56 8.5 -93.5t20.5 -37.5q34 0 101 130t106 275q-9 6 -24 15t-55 24t-73 15q-29 0 -56.5 -107t-27.5 -221z" />
<glyph unicode="A" d="M-68 -4l35 178q73 19 113 113l432 1028l547 33l28 -25q98 -789 127 -1010q9 -69 32 -100t65 -37l12 -20l-37 -162q-171 4 -282 4q-84 0 -180.5 -2.5t-151.5 -5.5l-54 -2l-14 18l33 172q86 9 110.5 22t24.5 48v117q-133 4 -149 4l-158 -11l-27 -90q-12 -41 -12 -55 q0 -17 11 -24t36 -7h55l15 -20l-37 -170q-186 6 -307 6zM561 616h98q14 0 29 1t35.5 2t36.5 2l-21 358h-45z" />
<glyph unicode="B" horiz-adv-x="1325" d="M-41 -14l41 184q79 14 111 45t41 104l92 732q1 14 1 26q0 68 -42 68l-70 -4l-20 24l43 164q279 -4 342 -4l370 14q209 0 325 -74.5t116 -209.5q0 -105 -56 -189.5t-178 -163.5q104 -44 158.5 -113.5t54.5 -158.5q0 -224 -160 -338.5t-473 -114.5q-35 6 -157.5 14.5 t-169.5 8.5q-56 0 -148.5 -3.5t-156.5 -6.5zM551 328q-2 -10 -2 -19q0 -35 25 -53q31 -22 106 -23q77 0 119.5 43.5t42.5 122.5q0 95 -103 133h-153zM623 797q106 -23 151 -23q4 3 11 8t24 22.5t30 38t24 53t11 67.5q0 60 -40.5 89t-126.5 29q-20 0 -28 -5.5t-11 -22.5 q-9 -40 -20 -104t-18 -108z" />
<glyph unicode="C" horiz-adv-x="1196" d="M37 530q0 401 192.5 610.5t561.5 209.5q76 0 189.5 -13.5t189.5 -26.5l75 -14l12 -41q-65 -188 -110 -438l-320 -18q23 116 23 153q0 55 -35 85t-100 30q-112 0 -159.5 -119t-47.5 -399q0 -153 32 -218t107 -65t111 48.5t65 189.5l318 20q-53 -239 -76 -436l-31 -33 q-8 -3 -23.5 -8.5t-65 -19t-100.5 -23.5t-126.5 -18.5t-147.5 -8.5q-256 0 -395 143.5t-139 409.5z" />
<glyph unicode="D" horiz-adv-x="1351" d="M-33 -16l41 190q73 12 104 47t44 123l84 686q4 32 4 54t-4 34q-7 24 -35 23l-64 -4l-16 28l39 166q223 -6 305 -6q41 0 119 3t136 6l58 3q281 0 430.5 -130.5t149.5 -383.5q0 -382 -217.5 -615t-573.5 -233q-188 25 -313 25q-50 0 -123 -4t-121 -8zM547 297 q0 -37 12 -51.5t41 -14.5q143 0 217 148.5t74 435.5q0 146 -42 204t-147 58q-22 0 -31.5 -11.5t-15.5 -43.5q-10 -51 -59 -380t-49 -345z" />
<glyph unicode="E" horiz-adv-x="1200" d="M-41 -20l41 188q75 12 107.5 50t42.5 130l88 686q4 32 4 54t-4 34q-8 22 -41 23l-52 -4l-20 28l39 162q287 -6 471 -6q416 0 618 25l23 -33q-63 -215 -96 -408l-287 -18q16 65 16 100q0 53 -36.5 70.5t-139.5 17.5q-39 0 -52 -10.5t-19 -44.5l-41 -231q17 0 74 -1t87 -1 l219 12l21 -29l-57 -235q-146 6 -236 6q-29 0 -149 -13q-2 -13 -11 -72.5t-13.5 -95t-4.5 -55.5q0 -44 17.5 -58.5t64.5 -14.5q123 0 169 39.5t81 177.5l264 18l22 -31q-61 -199 -108 -422l-35 -32q-325 14 -637 14q-93 0 -200.5 -5t-168.5 -10z" />
<glyph unicode="F" horiz-adv-x="1105" d="M-41 -20l41 188q75 12 106.5 50t43.5 130l88 686q4 32 4 54t-4 34q-8 22 -41 23l-52 -4l-20 28l39 162q287 -6 471 -6q379 0 561 25l23 -33q-53 -220 -84 -408l-287 -16q14 63 14 98q0 51 -28 69.5t-101 18.5q-39 0 -52 -10.5t-19 -44.5l-48 -266l164 -2l209 12l23 -29 l-58 -235q-139 6 -227 6q-45 0 -150 -12l-18 -140q-4 -30 -4 -52q0 -32 8 -46q13 -24 64 -24q27 0 55.5 4t43.5 8l15 4l29 -37l-53 -221q-232 6 -324 6q-94 0 -202 -5t-169 -10z" />
<glyph unicode="G" horiz-adv-x="1265" d="M37 530q0 401 192.5 610.5t561.5 209.5q76 0 189.5 -13.5t189.5 -26.5l75 -14l12 -41q-65 -159 -110 -409l-320 -19q23 94 23 131q0 109 -135 109q-112 0 -159.5 -119t-47.5 -399q0 -153 32 -218t107 -65q30 0 58.5 6t41.5 12l13 7l14 129q2 19 2 33q0 23 -6 34 q-10 17 -45 17l-63 -2l-15 28l47 195h307q63 0 142.5 3.5t79.5 6.5l6 -119q-45 -28 -67.5 -63t-31.5 -90q-13 -70 -26.5 -174t-13.5 -133l2 -78l-29 -33q-19 -8 -55.5 -19t-164 -30t-272.5 -19q-256 0 -395 143.5t-139 409.5z" />
<glyph unicode="H" horiz-adv-x="1466" d="M-35 -10l37 174q80 17 109 49.5t39 118.5l88 708q3 24 3 42q1 29 -7 42q-12 21 -54 21l-51 -2l-14 28l35 154h258l405 10l-37 -184q-64 -12 -86 -32t-31 -75l-41 -247l158 -6q110 0 162 6l31 243q3 22 3 40q0 29 -8 43q-12 22 -53 22l-53 -2l-14 28l35 154h381l301 10 l-35 -180q-74 -12 -98.5 -32.5t-34.5 -78.5q-26 -132 -69.5 -424.5t-43.5 -347.5q0 -49 14.5 -69.5t48.5 -20.5l56 6l14 -22l-39 -170q-113 2 -244 4h-100l-336 -2l37 178q71 2 105.5 37.5t44.5 118.5l26 209q-59 2 -108 2q-18 0 -73.5 -4.5t-101.5 -9.5l-46 -5l-25 -205 q-6 -47 -6 -75q0 -38 11.5 -52t39.5 -14q16 0 29.5 1.5t18.5 2.5l5 2l15 -20l-39 -172q-248 8 -330 8q-55 0 -138 -2.5t-139 -5.5z" />
<glyph unicode="I" horiz-adv-x="735" d="M-35 -10l37 174q83 19 111 51t37 117l88 708q3 24 3 42q1 29 -7 42q-12 21 -54 21l-49 -2l-16 28l35 154h325l348 10l-37 -184q-68 -10 -90 -29.5t-34 -77.5q-30 -168 -72.5 -450.5t-42.5 -337.5q0 -45 11.5 -61.5t39.5 -16.5q18 0 34 1.5t23 2.5l7 2l12 -20l-39 -172 q-250 8 -334 8q-56 0 -140 -2.5t-140 -5.5z" />
<glyph unicode="J" horiz-adv-x="673" d="M-143 -238l8 31q134 95 184 186.5t78 290.5l94 770q4 29 4 49q0 24 -5 35q-10 21 -48 21l-72 -4l-14 28l35 156l285 2q88 1 185 4.5t149 6.5l53 3l-41 -190q-59 -14 -77 -32t-28 -75q-62 -313 -131 -870q-28 -197 -168.5 -320t-419.5 -190z" />
<glyph unicode="K" horiz-adv-x="1384" d="M-35 -10l37 174q80 17 109.5 50t38.5 118l88 708q3 24 3 42q1 29 -7 42q-12 21 -54 21l-51 -2l-14 28l37 156q288 -2 323 -2l350 10l-37 -184q-78 -20 -103 -42t-30 -73l-102 -717q-6 -47 -6 -76q0 -24 4 -37q9 -28 47 -28q19 0 35 1.5t23 2.5l6 2l14 -20l-39 -172 q-252 8 -336 8q-56 0 -140 -2.5t-140 -5.5zM610 649l19 62l231 256q31 32 50.5 66.5t19.5 56.5q0 26 -16 38t-56 15l-10 20l39 168q195 -6 287 -6l292 10l15 -30l-37 -154q-89 -49 -156 -108t-139 -152l-123 -162l133 -373q32 -91 70.5 -133t97.5 -51l19 -31l-41 -151 q-265 -23 -316 -23q-78 0 -120 36t-76 130z" />
<glyph unicode="L" horiz-adv-x="1112" d="M-41 -20l41 188q75 12 107.5 50t42.5 130l86 692q3 24 3 42q1 29 -7 42q-12 21 -54 21l-51 -2l-14 28l34 154h326l422 10l-47 -200q-105 -11 -143.5 -32t-47.5 -75q-30 -169 -68 -420t-38 -307q0 -35 14 -50t45 -15q70 0 109.5 27t66 96.5t50.5 209.5l266 27l20 -31 q-61 -263 -114 -547l-35 -32q-296 14 -586 14q-92 0 -199 -5t-168 -10z" />
<glyph unicode="M" horiz-adv-x="1654" d="M-51 -16l39 184q55 6 84.5 36.5t44.5 98.5q30 135 93.5 440.5t63.5 339.5q0 28 -20 40.5t-92 19.5l-15 16l41 176q211 -10 295 -10l316 8q6 -136 20.5 -298.5t25.5 -257.5l11 -95h27q137 347 237 643q38 1 119 -1q61 -1 110 -2h32q61 0 118 5l187 10l14 -8l-39 -180 q-81 -3 -107 -23t-34 -82q-19 -167 -35 -684q-1 -25 -1 -46q0 -64 11 -93q15 -39 59 -39l60 4l12 -16l-39 -176q-125 4 -219 6q-50 0 -212 -5.5t-181 -10.5l47 186q56 6 81.5 28.5t31.5 71.5l53 473h-27q-1 -3 -18 -44t-46 -111.5t-64.5 -158t-81.5 -204t-89 -229.5 l-262 -21q-33 246 -69.5 486.5t-41.5 281.5h-26q-68 -480 -68 -507q0 -56 58 -56l51 4l16 -16l-47 -176q-221 8 -287 8q-36 0 -95 -3.5t-100.5 -7.5t-41.5 -5z" />
<glyph unicode="N" horiz-adv-x="1470" d="M-25 -16l43 184q60 8 90 38t39 91l111 715q2 19 2 35q0 42 -17 60q-24 24 -116 34l-21 28l31 166q149 -10 299 -10q49 0 114.5 2t106.5 4l41 2q58 -148 130 -310.5t114 -251.5l43 -89h31l37 375q1 14 1 25q0 31 -8 45q-11 18 -47 18h-61l-8 22l31 166q222 -8 335 -8 q281 0 281 6l-33 -184q-64 -9 -92 -37.5t-37 -91.5l-151 -1018l-394 -25q-74 169 -150.5 336.5t-116.5 250.5l-40 83h-31l-36 -364q-2 -18 -2 -33q0 -33 10 -49q14 -23 57 -23l66 8l16 -18l-43 -174q-225 8 -309 8q-63 0 -142 -4t-127 -8z" />
<glyph unicode="O" horiz-adv-x="1296" d="M37 524q0 397 185.5 611.5t539.5 214.5q262 0 403.5 -136t141.5 -399q0 -397 -189 -618.5t-538 -221.5q-256 0 -399.5 142.5t-143.5 406.5zM506 479q0 -126 31.5 -186t97.5 -60q106 0 152.5 137.5t46.5 452.5q0 246 -134 246q-103 0 -148.5 -138.5t-45.5 -451.5z" />
<glyph unicode="P" horiz-adv-x="1210" d="M-39 -18l41 188q74 12 107 50t43 124l86 690q3 29 3 50q0 24 -4 37q-8 24 -36 24l-72 -4l-16 24l39 160h286l346 12q101 0 183.5 -16.5t137.5 -45t94.5 -64.5t60.5 -78.5t30.5 -82.5t9.5 -81q0 -143 -80.5 -269t-210.5 -200t-272 -74h-170l-12 -98q-4 -34 -4 -59 q-1 -37 9 -57q16 -32 77 -32l63 4l9 -16l-41 -176q-246 8 -332 8q-40 0 -133.5 -4.5t-167.5 -9.5zM602 678l129 -21q143 52 143 269q0 81 -42.5 118t-133.5 37q-20 0 -25.5 -7.5t-10.5 -37.5q-52 -300 -60 -358z" />
<glyph unicode="Q" horiz-adv-x="1304" d="M37 524q0 397 185.5 611.5t539.5 214.5q262 0 403.5 -136t141.5 -399q0 -286 -99.5 -483.5t-289.5 -288.5v-6q90 -84 203 -134t210 -50q39 0 85.5 5t73.5 10l26 5l20 -23l18 -139q-34 -23 -87.5 -57.5t-157.5 -92t-138 -57.5q-84 0 -155.5 36.5t-171.5 131.5t-285 303 q-247 6 -384.5 147.5t-137.5 401.5zM506 479q0 -126 31.5 -186t97.5 -60q106 0 152.5 137.5t46.5 452.5q0 246 -134 246q-103 0 -148.5 -138.5t-45.5 -451.5z" />
<glyph unicode="R" d="M-39 -18l41 188q74 12 107 49.5t43 124.5l88 711q2 21 2 37q0 22 -4 34q-8 20 -37 19l-72 -4l-16 24l41 162q202 -2 284 -2l357 12q259 0 395.5 -85t136.5 -251q0 -271 -287 -436l93 -213q38 -87 81.5 -133.5t85.5 -46.5l19 -33l-37 -149l-317 -23q-86 0 -132.5 42.5 t-72.5 144.5l-80 313h-109l-16 -139q-4 -35 -4 -60q1 -45 13 -60q20 -24 114 -28l8 -16l-41 -172q-248 8 -332 8q-67 0 -155 -4.5t-142 -9.5zM608 725l148 -20q143 55 143 233q0 73 -48.5 108t-150.5 35q-21 0 -27 -7.5t-11 -37.5q-43 -229 -54 -311z" />
<glyph unicode="S" horiz-adv-x="1097" d="M-27 100q63 203 86 338l260 19q-2 -20 -2 -37q-1 -72 29 -117q36 -55 119 -55q60 0 96.5 25.5t36.5 66.5q0 20 -11.5 39t-25 32t-45 31t-50.5 27t-62 29l-3 1.5l-3 1.5t-3.5 1.5t-3.5 1.5q-45 22 -74 37.5t-70 41.5t-67 52.5t-51 61.5t-37 78.5t-12 94.5q0 217 180 348.5 t477 131.5q97 0 196 -14.5t149 -29.5l51 -14l20 -45q-59 -172 -96 -356l-242 -17l-22 17q6 47 6 57q0 59 -33 89t-94 30q-57 0 -93 -28.5t-36 -71.5q0 -39 35 -69t104 -64q15 -7 47.5 -22t51.5 -24t50.5 -25.5t51.5 -29.5t47 -32.5t44 -38t35.5 -43.5t29 -51t17.5 -58.5 t7 -67.5q0 -218 -177.5 -342.5t-486.5 -124.5q-105 0 -206 22t-150 44l-49 22z" />
<glyph unicode="T" horiz-adv-x="1183" d="M35 782q51 304 82 537l30 29l236 -23h625l247 23l23 -29q-13 -107 -26.5 -237t-21.5 -206l-7 -77l-256 -17q3 95 5 153v18q0 45 -8 71q-10 32 -29 42.5t-58 10.5q-105 -688 -105 -788q0 -55 21 -79t67 -24l103 7l8 -13l-41 -192q-293 12 -408 12q-57 0 -159.5 -4.5 t-176.5 -9.5l-73 -4l39 188q122 10 164.5 44t54.5 130l90 733q-73 0 -103 -51.5t-65 -226.5z" />
<glyph unicode="U" horiz-adv-x="1239" d="M78 1149l43 182q196 -6 356 -6l271 8l-43 -190q-53 -6 -77 -29t-30 -72l-84 -591q-4 -36 -4 -58v-7q0 -150 121 -150q71 0 106.5 41t48.5 139l74 618q4 32 4 54t-4 34q-8 23 -37 23l-43 -4l-6 8l45 182q166 -6 238 -6l293 6l-39 -184q-64 -22 -82 -37.5t-23 -52.5 l-71 -578q-34 -255 -175 -379.5t-399 -124.5q-236 0 -350.5 86.5t-114.5 264.5q0 38 6 82l78 626q4 36 4 58q0 21 -4 32q-8 21 -41 21l-57 -4z" />
<glyph unicode="V" horiz-adv-x="1275" d="M74 1167l37 162q165 -4 274 -4q86 0 182 2.5t149 4.5l54 3l12 -18l-32 -172q-82 -10 -109 -32t-27 -75l13 -694h45q248 684 248 756q0 21 -12 31t-42 10h-49l-14 20l37 170q186 -6 307 -6l246 2l-35 -178q-34 -11 -51.5 -32t-42.5 -81l-408 -1028l-573 -35 q-84 816 -109 1037q-9 69 -28.5 100t-59.5 37z" />
<glyph unicode="W" horiz-adv-x="1988" d="M74 1167l39 162q158 -4 262 -4q81 0 173.5 2.5t144.5 4.5l52 3l13 -18l-35 -172q-75 -12 -104 -35t-29 -70l10 -696h43q47 132 122.5 357.5t106.5 326.5q9 39 15 55q5 40 -14.5 52t-86.5 12l-12 20l39 162q207 -4 326 -4q82 0 174 2.5t143 4.5l51 3l15 -18l-35 -172 q-79 -9 -107 -30.5t-28 -74.5l12 -696h43q66 175 154 451.5t88 310.5q0 22 -10 28.5t-42 6.5h-47l-12 20l37 170q180 -6 295 -6l235 2l-34 -178q-35 -12 -53 -34.5t-40 -78.5l-385 -1028l-553 -35l-12 584h-29l-178 -549l-553 -35q-78 816 -98 1037q-14 72 -31.5 101 t-52.5 36z" />
<glyph unicode="X" horiz-adv-x="1419" d="M-55 20l30 164q45 22 131 103.5t148 161.5l205 260l-127 247q-25 48 -47.5 78t-51.5 48t-50 26t-64 20l-8 13l41 186q135 -2 352 -2l348 12l10 -22l-35 -168q-79 0 -79 -57q0 -11 2 -23t8 -28t10 -26.5t15 -33.5t16 -32.5t20.5 -39t20.5 -39.5q13 20 37 56.5t39.5 60.5 t32.5 52t25.5 47t8.5 30q0 20 -14.5 27.5t-53.5 7.5l-4 12l33 164h313l261 6l6 -16l-33 -178q-102 -47 -161.5 -95t-119.5 -129l-219 -297l135 -249q54 -93 105.5 -134.5t120.5 -42.5l-33 -192q-194 6 -270 6l-418 -14l-13 14l35 172q60 3 60 47q0 18 -17 49l-94 181 l-84 -129q-41 -62 -41 -93q0 -51 68 -51l10 -22l-31 -166q-240 12 -303 12q-36 0 -103.5 -3t-117.5 -6l-49 -3z" />
<glyph unicode="Y" horiz-adv-x="1331" d="M82 1141l43 186q237 -4 303 -4q40 0 130.5 3.5t161.5 7.5l71 3l12 -22l-39 -168q-84 0 -84 -55q0 -28 22.5 -124t45.5 -175h28l103 233q36 64 36 94q0 29 -69 29l-4 12l37 162h317q46 0 103 2t91 4l33 2l7 -16l-37 -178q-68 -38 -135 -106t-115 -152l-225 -373 q-27 -49 -37 -89t-17 -102q-3 -24 -3 -43q0 -39 12 -58q18 -28 75 -28q23 0 48.5 2t39.5 4l15 1l8 -13l-41 -192q-301 12 -418 12q-57 0 -160 -4.5t-178 -9.5l-74 -4l39 188q129 9 173.5 40t54.5 122l4 33q2 16 2 32q0 67 -35 152l-164 407q-41 108 -172 172z" />
<glyph unicode="Z" horiz-adv-x="1183" d="M-43 104l766 1006l-145 -20q-49 -7 -80 -17t-53 -24.5t-35.5 -42.5t-21.5 -60.5t-17 -89.5l-262 -18q61 301 90 491l24 23l359 -23h665l37 -110q-81 -97 -169 -206t-154 -192.5t-147 -190t-122 -160.5t-108.5 -144t-77.5 -103l203 31q96 15 146.5 81t80.5 210l262 18 q-82 -319 -111 -524l-47 -45l-858 12l-166 -20z" />
<glyph unicode="[" horiz-adv-x="649" d="M37 -238q92 565 117 770q11 91 29.5 285.5t30.5 342.5l13 149l514 22l7 -20l-37 -172l-185 -35l-141 -1137l184 -35l6 -22l-36 -170z" />
<glyph unicode="\" horiz-adv-x="653" d="M70 1341l41 41h243l115 -919q17 -138 41 -302.5t40 -260.5l15 -95l-26 -30h-258q-41 328 -84 665q-19 148 -51 373t-54 377z" />
<glyph unicode="]" horiz-adv-x="649" d="M-86 -240l39 172l184 35l139 1137l-184 35l-6 22l37 170l502 -22q-90 -565 -117 -770q-11 -91 -29.5 -285.5t-31.5 -343.5l-13 -148l-514 -22z" />
<glyph unicode="^" horiz-adv-x="929" d="M-18 303q92 151 176 309l196 365l314 14l28 -16q72 -240 113 -381l94 -283l-201 -114l-40 18q-52 152 -97 297l-69 209h-15l-98 -184q-36 -67 -80 -152t-70 -137l-26 -51l-207 69z" />
<glyph unicode="_" horiz-adv-x="888" d="M-135 -410l49 215h725q57 0 100.5 1.5t58.5 2.5l15 1l14 -39l-55 -217q-146 0 -440.5 -1.5t-448.5 -1.5z" />
<glyph unicode="`" horiz-adv-x="790" d="M59 1350l148 206h35q190 -176 383 -342l-84 -124l-45 -15q-94 56 -202 116t-170 92l-61 32z" />
<glyph unicode="a" horiz-adv-x="1175" d="M-43 -2l29 149q58 17 86 80l344 797l499 27l25 -23q89 -635 107 -772q10 -97 71 -106l12 -19l-32 -135q-146 2 -242 2l-330 -6l-12 14l27 148q69 8 87.5 16t18.5 33q0 3 1 10t1 12l2 43l-116 2l-125 -6l-15 -53q-8 -24 -8 -37q0 -18 33 -18h39l14 -19l-31 -143 q-160 4 -260 4h-225zM492 487h73q39 0 76 2l-12 254h-41z" />
<glyph unicode="b" horiz-adv-x="1144" d="M-35 -10l35 155q64 10 89.5 33.5t33.5 79.5l70 551q4 32 -5 51t-28 19l-58 -2l-18 20l37 139q246 -4 297 -4l323 12q179 0 277 -59t98 -166q0 -79 -43.5 -142.5t-142.5 -127.5q172 -75 172 -215q0 -179 -133 -265.5t-406 -86.5q-24 5 -129 11.5t-147 6.5 q-48 0 -128.5 -2.5t-136.5 -5.5zM483 268q-1 -7 -1 -13q0 -25 19 -37q24 -16 81 -15q120 0 120 110q0 61 -71 88l-123 2zM539 631q10 -3 52 -11t68 -8q8 6 19 16t30 43.5t19 69.5q0 78 -123 78q-17 0 -23.5 -3.5t-9.5 -14.5q-6 -23 -13 -61t-12.5 -71t-6.5 -38z" />
<glyph unicode="c" horiz-adv-x="1017" d="M33 422q0 631 618 631q63 0 159.5 -10.5t161.5 -21.5l66 -11l13 -37q-53 -149 -90 -352l-291 -17q18 94 18 123q0 38 -26 60t-72 22q-78 0 -107.5 -79.5t-29.5 -283.5q0 -126 19 -169.5t73 -43.5q55 0 79 33.5t44 139.5l286 18q-41 -194 -57 -354l-27 -27 q-20 -7 -54.5 -16.5t-137.5 -26t-199 -16.5q-217 0 -331.5 112t-114.5 326z" />
<glyph unicode="d" horiz-adv-x="1146" d="M-27 -12l35 162q59 9 84 36t35 95l63 510q2 23 2 39q0 19 -3 29q-6 18 -27 18l-51 -5l-17 25l33 141q196 -6 264 -6l264 10q236 0 360 -100.5t124 -300.5q0 -302 -178 -480.5t-478 -178.5q-156 18 -262 18q-42 0 -104 -3t-103 -6zM479 242q0 -41 25 -41q213 0 213 432 q0 108 -25 146t-96 38q-15 0 -23 -9.5t-12 -33.5q-5 15 -76 -486z" />
<glyph unicode="e" horiz-adv-x="1028" d="M-35 -16l35 159q62 11 88 40.5t33 101.5l67 508q3 25 3 42q1 18 -3 27q-6 17 -32 17l-41 -2l-21 24l33 137q254 -6 414 -6q355 0 516 21l20 -29q-53 -176 -78 -328l-260 -14q15 47 15 72q0 39 -29 53t-107 14q-27 0 -36.5 -7.5t-14.5 -31.5l-30 -157h131l178 8l18 -27 l-47 -198q-118 4 -190 4q-28 0 -77 -4l-48 -5q0 -2 -9.5 -62.5t-9.5 -80.5q0 -34 13.5 -45.5t48.5 -11.5q91 0 126.5 31t61.5 133l240 16l20 -27q-51 -158 -88 -340l-33 -26q-261 10 -532 10q-80 0 -173.5 -4t-147.5 -8z" />
<glyph unicode="f" horiz-adv-x="956" d="M-35 -16l35 161q61 7 86.5 37t34.5 103l67 508q3 25 3 42q0 18 -3 27q-7 17 -32 17l-41 -2l-21 24l33 137q254 -6 414 -6q321 0 465 21l22 -29q-42 -181 -67 -326l-259 -14q11 45 11 70q0 37 -21.5 52t-73.5 15q-27 0 -36.5 -7.5t-14.5 -31.5l-35 -184l132 -2l174 8 l20 -24l-47 -199q-114 4 -188 4q-7 0 -123 -8l-13 -80q-2 -20 -2 -35q0 -28 7 -40q12 -19 53 -19q24 0 47 3.5t34 7.5l11 3l27 -33l-46 -188q-196 4 -272 4q-83 0 -178 -4t-149 -8z" />
<glyph unicode="g" horiz-adv-x="1075" d="M39 414q0 637 625 637q64 0 160.5 -10.5t161.5 -20.5l65 -10l12 -35q-55 -127 -94 -328l-289 -16q20 75 20 102q0 78 -100 78q-81 0 -111 -85t-30 -304q0 -109 20 -150t72 -41q21 0 40.5 3.5t28.5 6.5l9 3l10 84q5 35 -3 48t-34 13l-45 -2l-14 27l41 161q180 3 262 3 q188 0 188 8l4 -103q-38 -23 -56 -49t-26 -67q-11 -54 -22.5 -138t-11.5 -108v-62l-25 -28q-15 -5 -45 -13t-137.5 -21t-231.5 -13q-215 0 -329.5 110.5t-114.5 319.5z" />
<glyph unicode="h" horiz-adv-x="1245" d="M-29 -6l31 147q64 12 87 35t32 84l67 539q2 18 2 31q0 24 -6 34q-10 16 -45 15h-41l-12 24l29 129h217l358 6l-31 -155q-51 -9 -68.5 -23t-23.5 -49l-32 -180l112 -6q81 0 121 4l23 170q2 16 2 28q0 25 -7 36q-10 16 -45 16h-43l-12 24l29 129h336l258 6l-31 -151 q-60 -9 -80 -24.5t-29 -61.5q-18 -76 -52 -304t-34 -272q0 -38 13 -53.5t41 -15.5l41 4q2 -4 7 -10.5t7 -10.5l-33 -141q-88 0 -203 2h-86l-299 -2l31 152q57 2 85.5 28t35.5 84l20 148q-34 2 -71 2l-170 -15l-19 -153q-2 -10 -2.5 -23.5t-1.5 -17.5q0 -30 9 -40.5t32 -10.5 l41 4l12 -19l-30 -143q-223 6 -293 6q-43 0 -114.5 -2t-117.5 -4q-28 -1 -40 0h-7z" />
<glyph unicode="i" horiz-adv-x="641" d="M-27 -6l29 147q67 13 90 38t29 91l67 529q2 18 2 31q0 24 -6 34q-10 16 -45 15h-37q-6 8 -14 24l29 129h278l303 6l-30 -155q-56 -7 -73 -22t-28 -60q-21 -103 -54.5 -324.5t-33.5 -265.5q0 -34 9 -46.5t32 -12.5l49 4l11 -19l-33 -143q-215 6 -285 6z" />
<glyph unicode="j" horiz-adv-x="591" d="M-119 -186l6 26q113 77 153 147t62 228l72 584q3 22 3 38q0 19 -5 28q-7 16 -39 16l-55 -4l-15 26l29 129l244 2l338 10l-35 -161q-46 -11 -60.5 -24.5t-21.5 -57.5q-48 -225 -104 -674q-22 -153 -142.5 -247t-363.5 -146z" />
<glyph unicode="k" horiz-adv-x="1193" d="M-29 -8l31 145q65 14 89 40t30 93l67 529q2 18 2 31q0 24 -6 34q-10 16 -45 15h-41l-12 24l31 131q253 -2 278 -2l307 6l-32 -155q-65 -17 -85.5 -33.5t-23.5 -54.5l-76 -533q-5 -38 -5 -62q0 -17 2 -26q6 -22 38 -22l49 4l15 -19l-33 -143q-219 6 -289 6zM524 506l17 51 l172 182q25 25 41 52.5t16 44.5q0 21 -12.5 30.5t-42.5 10.5l-8 18l30 141q168 -4 246 -4l256 8l12 -26l-30 -129q-138 -77 -248 -213l-76 -101l98 -278q25 -70 55.5 -103.5t77.5 -42.5l17 -26l-35 -129q-231 -19 -276 -19q-69 0 -103.5 27t-62.5 102z" />
<glyph unicode="l" horiz-adv-x="964" d="M-35 -16l33 159q63 11 89.5 40.5t33.5 101.5l65 514q2 19 2 33q0 22 -6 32q-10 16 -45 15h-41l-12 24l29 129h280l373 6l-41 -170q-87 -7 -121 -22.5t-39 -48.5q-24 -130 -53 -315.5t-29 -231.5q0 -47 39 -47q53 0 83 22t50.5 77.5t38.5 166.5l240 23q14 -18 18 -27 q-49 -216 -92 -447l-31 -28q-239 10 -493 10q-79 0 -172 -4t-146 -8z" />
<glyph unicode="m" horiz-adv-x="1400" d="M-41 -12l33 155q44 4 68 28t36 75q11 38 67 299t56 289q0 20 -13.5 27t-74.5 13l-14 15l35 151q182 -8 254 -8l280 6q2 -87 10.5 -200.5t16.5 -183.5l8 -70h24q104 258 170 448q36 0 109 -2q55 -1 98 -1q14 1 28 1q53 0 105 4l152 8l14 -6l-32 -155q-67 -1 -88 -15.5 t-27 -64.5q-11 -94 -23 -510q-1 -21 -1 -38q0 -45 9 -67q13 -30 50 -30l49 2l12 -15l-33 -147q-104 2 -184 4q-40 0 -184.5 -4t-161.5 -8l39 157q46 5 67 22.5t25 55.5l43 309h-25l-1 1q-33 -61 -163 -388q-29 -73 -57 -145l-239 -16q-21 149 -40.5 277.5t-29.5 190 t-12 80.5h-25q-41 -315 -41 -335q0 -43 49 -43l39 2q9 -6 15 -15l-39 -147q-195 6 -248 6q-31 0 -81.5 -2.5t-87 -5.5t-36.5 -4z" />
<glyph unicode="n" horiz-adv-x="1255" d="M-20 -12l36 155q49 6 74 30t33 71l84 530q2 15 2 27q0 33 -14 46q-19 18 -95 27l-20 25l26 141q128 -8 263 -8l231 6q43 -102 96.5 -215.5t85.5 -176.5l33 -62h27l22 227q3 42 -6 56t-39 14h-49l-8 18l24 139q197 -6 295 -6q242 0 242 4l-27 -155q-52 -7 -74 -29t-30 -72 l-117 -772l-362 -18q-56 116 -113 229.5t-86 168.5l-29 56h-28l-21 -211q-1 -14 -1 -25q1 -28 9 -40q12 -18 50 -18l51 6l14 -15l-35 -147q-198 6 -268 6q-56 0 -125 -3t-110 -6z" />
<glyph unicode="o" horiz-adv-x="1097" d="M33 418q0 313 149.5 474t446.5 161q224 0 341 -105.5t117 -318.5q0 -313 -151.5 -480t-443.5 -167q-220 0 -339.5 110.5t-119.5 325.5zM453 391q0 -106 18.5 -147t63.5 -41q73 0 102 94t29 326q0 105 -19.5 146.5t-66.5 41.5q-70 0 -98.5 -94.5t-28.5 -325.5z" />
<glyph unicode="p" horiz-adv-x="1046" d="M-33 -14l35 159q58 9 85 39.5t36 96.5l65 512q3 23 3 39q0 18 -3 28q-7 19 -28 19l-62 -2l-14 20l33 135h245l300 10q106 0 187.5 -20t128.5 -51t77.5 -72.5t40.5 -78.5t10 -75q0 -112 -68 -210.5t-177 -155.5t-228 -57h-139l-7 -50q-4 -28 -4 -48q0 -31 9 -46 q13 -24 65 -24l47 2q1 -3 4 -7.5t4 -7.5l-34 -147q-217 6 -291 6q-32 0 -112.5 -4t-144.5 -8q-49 -2 -60 -2h-3zM522 535l99 -15q102 39 102 191q0 58 -30.5 84t-98.5 26q-14 0 -19.5 -6.5t-9.5 -30.5q-3 -21 -19 -108.5t-24 -140.5z" />
<glyph unicode="q" horiz-adv-x="1103" d="M33 418q0 313 149.5 474t446.5 161q224 0 341 -105.5t117 -318.5q0 -447 -299 -588v-6q64 -57 157 -94t171 -37q32 0 71 4t62 8l23 4l18 -20l17 -123q-30 -19 -76.5 -47t-138 -75.5t-121.5 -47.5q-68 0 -126.5 29.5t-139.5 104.5t-234 241q-211 6 -324.5 116t-113.5 320z M453 391q0 -106 18.5 -147t63.5 -41q73 0 102 94t29 326q0 105 -19.5 146.5t-66.5 41.5q-70 0 -98.5 -94.5t-28.5 -325.5z" />
<glyph unicode="r" horiz-adv-x="1169" d="M-33 -16l35 159q59 11 85.5 41t35.5 97l67 532q4 36 -2.5 51t-27.5 15l-62 -2l-14 20l35 137q173 -2 243 -2l310 10q225 0 343 -67.5t118 -202.5q0 -208 -232 -338l70 -145q30 -65 66.5 -102t66.5 -37l18 -31l-32 -127l-279 -17q-76 0 -114 31.5t-60 112.5l-59 231h-82 l-11 -86q-3 -23 -3 -40q0 -36 12 -48q17 -18 96 -22l6 -15l-33 -145q-221 6 -289 6q-58 0 -135 -4t-125 -8zM526 571l117 -16q62 23 84.5 63.5t22.5 100.5q0 53 -36.5 76.5t-115.5 23.5q-18 0 -23 -5.5t-8 -29.5q-23 -112 -41 -213z" />
<glyph unicode="s" horiz-adv-x="946" d="M-16 82q53 164 71 260l234 16q-1 -10 -1 -20q0 -48 26 -82q30 -41 89 -41q43 0 69 14t26 37q0 17 -11 32t-37 29.5t-46.5 23.5t-62.5 26l-15 6q-57 25 -92.5 45t-78 54.5t-64 81.5t-21.5 106q0 174 153 277.5t410 103.5q83 0 167 -11.5t126 -22.5l43 -11l18 -39 q-49 -136 -80 -279l-217 -14l-20 14q4 31 4 33q0 42 -27 65t-72 23q-41 0 -66.5 -18t-25.5 -46t27.5 -48t87.5 -46q121 -49 158 -69q152 -91 155 -234q0 -173 -150 -269.5t-415 -96.5q-89 0 -175 17t-127 35l-42 17z" />
<glyph unicode="t" horiz-adv-x="1021" d="M29 584q40 252 65 442l27 25l205 -19h520l213 19l20 -25q-11 -88 -23 -195.5t-18 -170.5l-6 -64l-229 -12q5 77 5 125q0 45 -4 65q-9 44 -56 43q-76 -542 -76 -579q0 -42 17 -61t54 -19l84 6l9 -10l-35 -164q-252 10 -350 10q-49 0 -138 -4t-153 -8l-64 -4l33 161 q99 7 134.5 32.5t43.5 90.5l70 549q-48 0 -68.5 -42.5t-46.5 -178.5z" />
<glyph unicode="u" horiz-adv-x="1046" d="M59 883l35 155q171 -6 312 -6l231 4l-37 -159q-42 -5 -61.5 -22.5t-22.5 -53.5l-65 -459q-5 -30 -5 -39q0 -100 84 -100q50 0 73 25t32 91l57 474q4 27 4 45q0 16 -3 24q-6 18 -29 17l-31 -2l-6 6l39 155q139 -6 198 -6l254 4l-33 -157q-50 -17 -64 -29t-17 -37l-54 -432 q-28 -205 -143.5 -302t-333.5 -97q-201 0 -298.5 65t-98.5 203q0 28 6 63l59 480q3 28 3 45.5t-3 25.5q-6 16 -32 15l-48 -2z" />
<glyph unicode="v" horiz-adv-x="1095" d="M63 899l31 137q140 -4 234 -4l327 6l13 -14l-27 -147q-63 -7 -84.5 -24.5t-21.5 -57.5v-506h40q23 62 58.5 164t79 236t43.5 159q0 26 -37 26h-35l-12 19l30 143q159 -4 259 -4l206 2l-28 -151q-25 -9 -39.5 -26t-32.5 -62l-317 -789l-525 -26q-72 665 -84 792 q-9 57 -22.5 81t-42.5 28z" />
<glyph unicode="w" horiz-adv-x="1695" d="M63 899l33 137q131 -4 221 -4l318 6l10 -14l-29 -147q-35 -5 -60.5 -68t-34.5 -122t-9 -93v-305h39q34 96 93 275t77 241q2 7 18 55q-1 13 -19 18t-61 3l-10 18l33 137q177 -4 281 -4l315 6l12 -14l-28 -147q-62 -6 -84.5 -23.5t-22.5 -58.5l2 -506h39q48 127 111 331.5 t63 231.5q0 15 -5.5 18.5t-29.5 3.5h-32l-13 19l31 143q154 -4 248 -4l198 2l-28 -151q-26 -10 -40 -28t-32 -60l-295 -789l-504 -26v413h-26l-123 -387l-504 -26q-68 665 -78 792q-12 59 -24.5 81t-38.5 28zM737 840v8v-8z" />
<glyph unicode="x" horiz-adv-x="1220" d="M-39 18l27 140q32 16 104 80t117 120l164 201l-99 170q-28 51 -57 78.5t-49.5 35.5t-67.5 21l-8 8l35 162q106 -2 299 -2l299 8l8 -18l-28 -143h-7q-51 0 -51 -41q0 -7 1 -14t2.5 -13t4.5 -14t5 -13.5t7.5 -15t8 -14t9.5 -15.5t9.5 -16t11 -17.5t11.5 -17.5 q10 16 26.5 40.5t27 41.5t22 35t17 31t5.5 20q0 15 -10.5 20.5t-40.5 4.5q-1 2 -2 5.5t-2 4.5l26 139q53 0 140.5 1t130.5 1l225 4l4 -12l-26 -154q-89 -42 -138 -78.5t-94 -95.5l-172 -229l102 -168q45 -72 88 -104.5t99 -32.5l-29 -164q-166 6 -227 6l-359 -10l-10 10 l29 148q39 0 39 30q0 9 -13 35l-71 117l-55 -82q-25 -40 -25 -59q0 -39 53 -39l8 -19l-24 -141q-209 10 -262 10l-232 -10z" />
<glyph unicode="y" horiz-adv-x="1163" d="M74 872l37 162q209 -4 260 -4l309 10l12 -18l-33 -143h-8q-53 0 -53 -39q0 -44 47 -201h27l63 152q31 57 31 71q0 22 -53 19l-4 10l30 137q53 0 142 1t133 1l194 6l4 -12l-30 -154q-54 -32 -110.5 -87t-90.5 -111l-184 -291q-31 -58 -39 -123q-2 -16 -2 -29q0 -33 12 -49 q15 -22 61 -22l86 6l9 -10l-35 -164q-265 10 -365 10q-49 0 -139 -3.5t-155 -6.5l-66 -4l33 159q109 6 146 29t46 90l2 17q1 10 1 21q0 49 -30 116l-143 321q-25 56 -137 125z" />
<glyph unicode="z" horiz-adv-x="1017" d="M-33 88l619 760l-101 -17q-50 -8 -76.5 -16.5t-44 -30.5t-24 -48t-14.5 -81l-236 -14q49 245 72 395l20 17l299 -17l570 2l34 -94q-270 -299 -626 -751l147 26q79 13 118.5 62.5t59.5 156.5l236 17q-67 -262 -90 -422l-39 -37l-729 8l-139 -16z" />
<glyph unicode="{" horiz-adv-x="667" d="M51 -35q0 55 38.5 131t77 145.5t38.5 106.5q0 95 -125 133l29 156q71 22 110 60t39 85q0 38 -34 148.5t-34 161.5q0 113 108 185.5t275 72.5q37 0 82.5 -6t72.5 -12l26 -7l16 -33l-57 -170q-39 11 -68 11q-53 0 -83 -32t-30 -87q0 -29 12.5 -110.5t12.5 -115.5 q0 -71 -44.5 -122.5t-123.5 -71.5l-2 -10q125 -43 125 -162q0 -50 -47 -175t-47 -165q0 -46 26 -73t70 -27q14 0 29 2.5t23 5.5l9 2l23 -27l-49 -170q-9 -5 -26.5 -13t-76 -21t-122.5 -13q-118 0 -195.5 62t-77.5 155z" />
<glyph unicode="|" horiz-adv-x="573" d="M25 -518q88 717 135 1083l133 1065l233 23l39 -33q-96 -685 -137 -1024l-135 -1124l-242 -23z" />
<glyph unicode="}" horiz-adv-x="667" d="M-86 -195l57 170q39 -10 68 -10q53 0 83 32.5t30 90.5q0 29 -11.5 115.5t-11.5 122.5q0 73 44.5 124.5t123.5 73.5l2 11q-125 43 -125 161q0 48 46 165t46 155q0 46 -26 73t-70 27q-14 0 -29 -2.5t-23 -5.5l-9 -2l-23 27l49 170q9 5 26.5 13t76 21t122.5 13 q118 0 195.5 -62t77.5 -155q0 -41 -23.5 -96t-51.5 -99t-51.5 -91.5t-23.5 -76.5q0 -53 32 -88t91 -45l-26 -156q-68 -17 -109 -56.5t-41 -88.5q0 -38 33 -148t33 -161q0 -123 -108.5 -201t-276.5 -78q-37 0 -82.5 6t-72.5 12l-26 7z" />
<glyph unicode="~" horiz-adv-x="1003" d="M8 424l4 33l246 235l45 8q46 0 199 -34.5t192 -34.5q27 0 75.5 29.5t82.5 59.5l35 30h33l86 -115l-5 -33l-245 -235l-45 -9q-46 0 -199.5 35t-192.5 35q-27 0 -75 -30t-82 -60l-35 -29h-33z" />
<glyph unicode="&#xa1;" horiz-adv-x="563" d="M-104 -442l256 880l217 33l37 -41l-31 -823l-43 -49l-391 -54zM129 750q0 109 64.5 175t168.5 66q83 0 126.5 -42.5t43.5 -121.5q0 -110 -64.5 -176.5t-170.5 -66.5q-81 0 -124.5 43.5t-43.5 122.5z" />
<glyph unicode="&#xa2;" horiz-adv-x="804" d="M27 342q0 224 123.5 399t312.5 230l86 348l244 29l10 -19l-88 -352q60 -11 110 -37l9 -37l-105 -264l-88 -2q-50 106 -123 106q-58 0 -95.5 -90.5t-37.5 -230.5q0 -78 25.5 -119t72.5 -41q40 0 80 39.5t74 112.5l43 -6l106 -119q-38 -98 -124 -178.5t-187 -114.5 l-76 -305l-239 -27l-15 12l78 324q-93 37 -144.5 126t-51.5 216z" />
<glyph unicode="&#xa3;" horiz-adv-x="1013" d="M-8 197q167 84 182 215l10 69q1 47 -23 62t-102 20l-6 12l35 144l127 18l6 56q13 103 104 204t223.5 164.5t258.5 63.5q158 0 242 -31l8 -23l-121 -268l-39 -6q-76 49 -124 68.5t-93 19.5q-51 0 -74.5 -29t-32.5 -102l-18 -117q69 0 137.5 1.5t102.5 3.5l34 1l9 -14 l-43 -174q-111 6 -267 6l-12 -78q-6 -53 -29 -108t-49 -80l123 29q19 0 94.5 -17.5t104.5 -17.5q46 0 81 42.5t42 110.5h63q18 -25 28.5 -78t10.5 -108q0 -123 -78.5 -202t-195.5 -79q-52 0 -119.5 27.5t-135 55.5t-118.5 28q-129 0 -289 -88l-29 12z" />
<glyph unicode="&#xa4;" horiz-adv-x="882" d="M-18 438q15 11 172 135q-9 37 -9 86q0 88 41 175l-141 147l14 47l236 158q65 -88 111 -158q69 27 131 27q59 0 125 -27l155 162l47 -8l131 -215l-164 -131q11 -53 11 -99q0 -90 -47 -176l137 -137l-14 -47l-234 -158l-111 152q-64 -23 -122 -23q-69 0 -132 29l-157 -162 l-47 8zM348 684q0 -57 36 -96t91 -39q65 0 115.5 50t50.5 118q0 57 -37 97t-92 40q-65 0 -114.5 -50.5t-49.5 -119.5z" />
<glyph unicode="&#xa5;" horiz-adv-x="1173" d="M18 250l45 174h289l-16 41l-21 55l-237 -2l-19 17l45 174h117q-5 13 -82 76t-80 89q14 63 19 80q2 12 5 25.5t7 29.5t6 25q141 -4 219 -4q29 0 183.5 4t167.5 8l8 -20l-33 -143q-34 0 -46.5 -8t-12.5 -25q0 -22 28 -111l29 -96h16l88 201q7 14 7 26q0 25 -41 25l-11 18 l25 119q54 0 142.5 1t131.5 1l193 6l8 -12l-35 -154q-68 -36 -102 -64t-60 -75l-10 -18l144 4l14 -21l-35 -176h-256l-39 -63l-22 -31l297 6l14 -20l-35 -176h-348v-19q0 -59 78 -59l86 6l8 -10l-33 -164q-262 10 -358 10q-49 0 -139.5 -3.5t-156.5 -6.5l-65 -4l33 159 q92 6 129.5 24.5t50.5 66.5l-321 -3z" />
<glyph unicode="&#xa6;" horiz-adv-x="573" d="M25 -518q53 449 102 825l231 35l33 -35l-100 -835l-242 -23zM182 756l111 874l233 23l39 -33q-71 -499 -116 -854l-242 -33z" />
<glyph unicode="&#xa7;" horiz-adv-x="962" d="M14 -43q0 57 30 128.5t85 133.5l55 -4q2 -69 49 -118.5t111 -49.5t64 55q0 29 -27 56.5t-67 48t-87.5 49.5t-87.5 60t-67 81t-27 111q0 188 244 311q-84 81 -84 180q0 149 133 250t324 101q113 0 198.5 -30.5t85.5 -70.5q0 -47 -43.5 -145t-75.5 -123h-51 q-10 51 -41.5 84t-68.5 33q-27 0 -47.5 -17t-20.5 -41q0 -30 36 -61.5t87 -63.5t102 -70t87 -96t36 -126q0 -168 -227 -295q89 -82 76 -191q-19 -141 -158 -236.5t-326 -95.5q-116 0 -206.5 46.5t-90.5 105.5zM379 629q0 -27 11.5 -51.5t25.5 -41.5t45 -39.5t49 -33.5 t59 -35q33 41 33 90q0 33 -13.5 61.5t-44 55.5t-54.5 44t-70 46q-41 -44 -41 -96z" />
<glyph unicode="&#xa8;" horiz-adv-x="790" d="M133 1282q0 92 55 148.5t144 56.5q69 0 106 -36.5t37 -102.5q0 -91 -55 -147t-144 -56q-69 0 -106 35.5t-37 101.5zM518 1282q0 92 55 148.5t144 56.5q69 0 106 -36.5t37 -102.5q0 -91 -54 -147t-142 -56q-72 0 -109 35.5t-37 101.5z" />
<glyph unicode="&#xa9;" horiz-adv-x="1388" d="M98 535q0 184 96 344t254 253t336 93q151 0 274 -75t192 -203.5t69 -282.5q0 -137 -57 -265t-151.5 -220.5t-220.5 -148t-259 -55.5q-151 0 -273.5 74.5t-191 202.5t-68.5 283zM221 547q0 -191 120.5 -321t303.5 -130q143 0 270 75.5t204 204.5t77 277 q0 190 -121.5 320.5t-304.5 130.5q-142 0 -269 -75.5t-203.5 -204.5t-76.5 -277zM397 549q0 399 391 399q40 0 101 -6.5t102 -13.5l41 -6l8 -25q-32 -94 -57 -221l-182 -10q10 59 10 75q0 25 -16 39.5t-45 14.5q-49 0 -67.5 -50.5t-18.5 -179.5q0 -80 11.5 -107.5 t45.5 -27.5q35 0 50.5 21.5t27.5 87.5l180 12q-25 -123 -35 -223l-16 -19q-111 -37 -248 -37t-210 71t-73 206z" />
<glyph unicode="&#xaa;" horiz-adv-x="798" d="M14 874q0 105 53.5 209t138.5 170t171 66l96 -27l6 27l31 18l207 -16l12 -35q-51 -219 -78 -383l6 -4q12 0 68 53l35 -6l28 -72q-120 -132 -182.5 -176.5t-128.5 -44.5q-74 0 -74 72q0 24 31 149h-14q-55 -92 -95.5 -142.5t-82.5 -78.5q-106 0 -167 58.5t-61 162.5z M293 965q0 -84 18 -84q22 0 61.5 81.5t61.5 170.5q-51 32 -98 32q-14 0 -28.5 -66t-14.5 -134z" />
<glyph unicode="&#xab;" horiz-adv-x="950" d="M61 449l7 55q196 190 352 360l119 -71l10 -48q-30 -41 -60.5 -90t-66.5 -110.5t-41 -69.5q48 -146 100 -268l-20 -47l-135 -74q-51 76 -117.5 167t-106.5 143zM475 449l6 55q197 190 353 360l118 -71l11 -48q-30 -41 -60.5 -90t-66.5 -110.5t-41 -69.5q48 -146 100 -268 l-21 -47l-135 -74q-51 76 -117 167t-106 143z" />
<glyph unicode="&#xac;" horiz-adv-x="1005" d="M25 449l71 276q277 -2 453 -2q60 0 155.5 3t161.5 6l66 3l10 -30q-45 -160 -72 -369l-32 -277l-283 -36l-23 18q23 186 50 383h-93l-448 -2z" />
<glyph unicode="&#xad;" horiz-adv-x="643" d="M55 397l47 217l306 35q58 6 100.5 12t55.5 9l14 2l18 -37l-53 -221l-467 -54z" />
<glyph unicode="&#xae;" horiz-adv-x="929" d="M125 995q0 123 64 230t170 169t225 62q154 0 256 -108.5t102 -266.5q0 -123 -64.5 -229.5t-171 -168.5t-225.5 -62q-154 0 -255 108t-101 266zM209 1004q0 -124 81 -210.5t202 -86.5q144 0 254 109t110 257q0 124 -80.5 210.5t-202.5 86.5q-144 0 -254 -109t-110 -257z M311 848l13 55q40 9 45 55l26 211q5 37 -10 37l-23 -2l-6 4l13 52h106q44 0 84 4q168 0 168 -103q0 -85 -88 -135l31 -65q7 -21 23 -38.5t28 -19.5l4 -6q-2 -7 -2 -18.5t-1.5 -15t-9.5 -8.5t-25 -7t-48 -4q-45 0 -60.5 8.5t-25.5 46.5l-25 96h-32q-1 -5 -3 -19.5t-4 -25.5 t-2 -14q0 -18 8 -22.5t35 -6.5v-4l-12 -53q-67 4 -94 4h-23zM506 1073q3 0 21 -1t26 -1q43 12 43 70q0 45 -59 45q-11 0 -13 -17q-2 -13 -9 -46t-9 -50z" />
<glyph unicode="&#xaf;" horiz-adv-x="790" d="M186 1186l66 223q188 -2 305 -2q44 0 106 3t102 6l40 3l18 -37l-65 -223l-279 -2l-264 -2z" />
<glyph unicode="&#xb0;" horiz-adv-x="600" d="M100 1044q0 125 92.5 215.5t213.5 90.5q103 0 170 -71.5t67 -176.5q0 -125 -91 -215t-214 -90q-102 0 -170 71t-68 176zM254 1057q0 -48 27.5 -77.5t74.5 -29.5q57 0 95 38.5t38 98.5q0 48 -27.5 78.5t-74.5 30.5q-58 0 -95.5 -39.5t-37.5 -99.5z" />
<glyph unicode="&#xb1;" horiz-adv-x="1005" d="M-23 -215l48 215h661l174 4l17 -39l-56 -217q-135 0 -408.5 -1t-418.5 -1zM23 432l71 277q142 -2 287 -2q6 53 20.5 160.5t20.5 160.5l272 27l29 -15q-30 -179 -53 -333l319 12l10 -31l-61 -278q-51 0 -152.5 -1t-152.5 -1l-33 -289l-272 -37l-25 18q21 152 41 308 l-305 -2z" />
<glyph unicode="&#xb2;" horiz-adv-x="755" d="M-4 662l4 149l213 199q133 130 133 188q0 27 -13.5 39t-43.5 12q-77 0 -164 -90h-29l-16 176q72 72 158.5 114t164.5 42q112 0 180 -51.5t68 -136.5q0 -95 -63.5 -189.5t-229.5 -243.5l7 -12h53q47 0 73 28t41 97l179 12q-54 -190 -74 -315l-29 -27q-324 17 -471 17z" />
<glyph unicode="&#xb3;" horiz-adv-x="659" d="M-8 848l39 35q56 -27 127 -27q60 0 95.5 20.5t35.5 55.5q0 53 -131 53l-19 23v135l92 16q84 31 84 98q0 19 -13 30t-36 11q-54 0 -145 -55h-23l-28 152q71 44 157.5 70t149.5 26q102 0 160.5 -41t58.5 -111q0 -67 -48 -120.5t-128 -75.5v-17q90 -34 132 -78t42 -106 q0 -75 -69.5 -142.5t-181 -107t-230.5 -39.5q-74 0 -100 43t-21 152z" />
<glyph unicode="&#xb4;" horiz-adv-x="790" d="M143 1214q86 74 181.5 159.5t148.5 134.5l53 48h35l148 -206l-4 -35q-222 -115 -433 -240l-45 15z" />
<glyph unicode="&#xb6;" horiz-adv-x="1140" d="M49 815q0 146 73 265.5t198.5 187t277.5 67.5q52 0 165 -5t159 -5l329 6l-32 -172l-7 -8q-55 -15 -70 -30.5t-26 -63.5q-15 -67 -52 -299t-54 -369q-14 -111 -76 -218.5t-151.5 -186.5t-201 -128t-219.5 -49q-109 0 -188.5 57.5t-79.5 133.5q0 53 38.5 135.5t88.5 142.5 h35q0 -117 44.5 -184t121.5 -67q82 0 123 44t53 148l111 899q3 19 -7.5 25t-44.5 6q-72 0 -113.5 -107t-41.5 -270q0 -160 78 -295l-9 -72q-243 0 -382.5 111.5t-139.5 300.5z" />
<glyph unicode="&#xb7;" horiz-adv-x="473" d="M39 479q0 110 64.5 177t170.5 67q79 0 122.5 -44t43.5 -122q0 -109 -64.5 -175.5t-168.5 -66.5q-82 0 -125 42.5t-43 121.5z" />
<glyph unicode="&#xb8;" horiz-adv-x="800" d="M47 -393q0 41 125 151h16q-4 -56 18 -85t64 -29q30 0 47 13t17 36q0 48 -158 129l92 252h127l-47 -150q46 -24 86 -51.5t75.5 -71t35.5 -84.5q0 -88 -97.5 -151.5t-232.5 -63.5q-62 0 -115 29t-53 76z" />
<glyph unicode="&#xb9;" horiz-adv-x="565" d="M-29 655l27 119q124 12 133 90l45 377q6 48 -3 63t-48 15l-66 -2l-12 14l27 109q11 1 186 20q57 5 121.5 13t100.5 13l36 5l19 -66q-44 -28 -70 -96q-12 -31 -43 -224.5t-31 -240.5q0 -65 41 -65l60 2l4 -8l-37 -131q-141 8 -217 8q-48 0 -116.5 -4t-112.5 -8z" />
<glyph unicode="&#xba;" horiz-adv-x="741" d="M31 930q0 188 104.5 297.5t282.5 109.5q129 0 197.5 -69t68.5 -199q0 -190 -105 -303t-282 -113q-128 0 -197 72t-69 205zM301 940q0 -71 10.5 -101t36.5 -30q34 0 48 50.5t14 170.5q0 76 -10 103.5t-38 27.5q-29 0 -45 -58.5t-16 -162.5z" />
<glyph unicode="&#xbb;" horiz-adv-x="950" d="M84 205q68 100 166 270q-48 146 -100 268l20 48l135 73q52 -76 118 -166.5t106 -143.5l40 -52l-6 -56q-194 -190 -352 -360l-119 72zM498 205q68 100 166 270q-44 136 -101 268l21 48l135 73q52 -76 118 -166.5t106 -143.5l40 -52l-6 -56q-194 -190 -352 -360l-119 72z " />
<glyph unicode="&#xbc;" horiz-adv-x="1730" d="M-29 506l27 119q124 12 133 90l45 377q6 48 -3 62.5t-48 14.5l-66 -2l-12 15l27 108q43 4 110.5 12t75.5 9l258 30l19 -65q-44 -28 -70 -96q-12 -31 -43 -224.5t-31 -240.5q0 -66 41 -66l60 2l4 -8l-37 -131q-141 8 -217 8q-48 0 -116.5 -3.5t-112.5 -6.5zM195 -80 q227 329 397 598l547 873l178 -66l20 -49q-367 -568 -553 -852l-387 -610l-190 71zM967 174l18 148l397 495l13 4l217 -18l-56 -457h89l14 -20l-37 -166l-86 2l-12 -146l-17 -16l-250 -16l-14 16q17 82 29 170zM1186 346h110l21 166h-17z" />
<glyph unicode="&#xbd;" horiz-adv-x="1796" d="M-29 506l27 119q124 12 133 90l45 377q6 48 -3 62.5t-48 14.5l-66 -2l-12 15l27 108q43 4 110.5 12t75.5 9l258 30l19 -65q-44 -28 -70 -96q-12 -31 -43 -224.5t-31 -240.5q0 -66 41 -66l60 2l4 -8l-37 -131q-141 8 -217 8q-48 0 -116.5 -3.5t-112.5 -6.5zM195 -80 q227 329 397 598l547 873l178 -66l20 -49q-367 -568 -553 -852l-387 -610l-190 71zM1020 -8l4 149l213 199q133 130 133 188q0 52 -57 52q-76 0 -164 -91h-29l-16 177q72 72 158.5 113.5t164.5 41.5q112 0 180 -51.5t68 -136.5q0 -95 -63.5 -189t-229.5 -243l7 -13h53 q47 0 73 28t41 97l179 13q-54 -191 -74 -316l-29 -26q-324 16 -471 16z" />
<glyph unicode="&#xbe;" horiz-adv-x="1722" d="M-8 698l39 35q54 -26 127 -26q60 0 95.5 20t35.5 55q0 54 -131 54l-19 22v135l92 17q84 31 84 98q0 19 -13 30t-36 11q-54 0 -145 -55h-23l-28 151q71 44 157.5 70t149.5 26q102 0 160.5 -41t58.5 -110q0 -67 -48 -121t-128 -76v-16q90 -34 132 -78t42 -106 q0 -75 -69.5 -142.5t-181 -107t-230.5 -39.5q-74 0 -100 42.5t-21 151.5zM186 -80q228 329 398 598l546 873l179 -66l20 -49q-367 -568 -553 -852l-387 -610l-190 71zM958 174l19 148l397 495l12 4l218 -18l-56 -457h88l15 -20l-37 -166l-86 2l-12 -146l-17 -16l-250 -16 l-14 16q17 82 29 170zM1178 346h110l21 166h-17z" />
<glyph unicode="&#xbf;" horiz-adv-x="759" d="M-104 -145q0 107 78.5 196.5t295.5 222.5l6 13l5 141l20 29l246 41l28 -17l15 -272l-10 -31l-201 -96q-109 -56 -109 -129q0 -66 77.5 -105t223.5 -45l25 -36l-113 -242l-37 -19q-242 6 -396 104.5t-154 244.5zM266 750q0 108 64.5 174.5t169.5 66.5q83 0 126.5 -42.5 t43.5 -121.5q0 -110 -65 -176.5t-171 -66.5q-81 0 -124.5 43.5t-43.5 122.5z" />
<glyph unicode="&#xc0;" d="M-68 -4l35 178q73 19 113 113l432 1028l547 33l28 -25q98 -789 127 -1010q9 -69 32 -100t65 -37l12 -20l-37 -162q-171 4 -282 4q-84 0 -180.5 -2.5t-151.5 -5.5l-54 -2l-14 18l33 172q86 9 110.5 22t24.5 48v117q-133 4 -149 4l-158 -11l-27 -90q-12 -41 -12 -55 q0 -17 11 -24t36 -7h55l15 -20l-37 -170q-186 6 -307 6zM500 1561l73 221l33 10q258 -111 510 -205l-43 -145l-39 -27q-113 28 -243 56.5t-203 42.5l-74 14zM561 616h98q14 0 29 1t35.5 2t36.5 2l-21 358h-45z" />
<glyph unicode="&#xc1;" d="M-68 -4l35 178q73 19 113 113l432 1028l547 33l28 -25q98 -789 127 -1010q9 -69 32 -100t65 -37l12 -20l-37 -162q-171 4 -282 4q-84 0 -180.5 -2.5t-151.5 -5.5l-54 -2l-14 18l33 172q86 9 110.5 22t24.5 48v117q-133 4 -149 4l-158 -11l-27 -90q-12 -41 -12 -55 q0 -17 11 -24t36 -7h55l15 -20l-37 -170q-186 6 -307 6zM512 1587q112 42 239.5 93t198.5 82l72 30l33 -10l73 -221l-14 -33q-266 -50 -520 -113l-39 27zM561 616h98q14 0 29 1t35.5 2t36.5 2l-21 358h-45z" />
<glyph unicode="&#xc2;" d="M-68 -4l35 178q73 19 113 113l432 1028l547 33l28 -25q98 -789 127 -1010q9 -69 32 -100t65 -37l12 -20l-37 -162q-171 4 -282 4q-84 0 -180.5 -2.5t-151.5 -5.5l-54 -2l-14 18l33 172q86 9 110.5 22t24.5 48v117q-133 4 -149 4l-158 -11l-27 -90q-12 -41 -12 -55 q0 -17 11 -24t36 -7h55l15 -20l-37 -170q-186 6 -307 6zM438 1577q81 56 178 126.5t154 113.5l57 43h56q1 5 45.5 -35.5t128 -117.5t145.5 -130l-88 -127l-49 -14q-51 24 -250 104q-153 -56 -274 -104l-45 14zM561 616h98q14 0 29 1t35.5 2t36.5 2l-21 358h-45z" />
<glyph unicode="&#xc3;" d="M-68 -4l35 178q73 19 113 113l432 1028l547 33l28 -25q98 -789 127 -1010q9 -69 32 -100t65 -37l12 -20l-37 -162q-171 4 -282 4q-84 0 -180.5 -2.5t-151.5 -5.5l-54 -2l-14 18l33 172q86 9 110.5 22t24.5 48v117q-133 4 -149 4l-158 -11l-27 -90q-12 -41 -12 -55 q0 -17 11 -24t36 -7h55l15 -20l-37 -170q-186 6 -307 6zM418 1493l4 33l190 235l35 8q36 0 152.5 -34.5t144.5 -34.5q22 0 59.5 30t64.5 60l26 29h32l107 -111l-4 -33l-191 -235l-34 -8q-36 0 -152.5 34.5t-144.5 34.5q-23 0 -60.5 -30t-63.5 -59l-26 -30h-33zM561 616h98 q14 0 29 1t35.5 2t36.5 2l-21 358h-45z" />
<glyph unicode="&#xc4;" d="M-68 -4l35 178q73 19 113 113l432 1028l547 33l28 -25q98 -789 127 -1010q9 -69 32 -100t65 -37l12 -20l-37 -162q-171 4 -282 4q-84 0 -180.5 -2.5t-151.5 -5.5l-54 -2l-14 18l33 172q86 9 110.5 22t24.5 48v117q-133 4 -149 4l-158 -11l-27 -90q-12 -41 -12 -55 q0 -17 11 -24t36 -7h55l15 -20l-37 -170q-186 6 -307 6zM459 1561q0 92 54.5 148t143.5 56q67 0 104.5 -36.5t37.5 -102.5q0 -91 -54 -147t-143 -56q-70 0 -106.5 35.5t-36.5 102.5zM561 616h98q14 0 29 1t35.5 2t36.5 2l-21 358h-45zM842 1561q0 92 54.5 148t143.5 56 q69 0 106.5 -36.5t37.5 -102.5q0 -91 -54.5 -147t-142.5 -56q-70 0 -107.5 36t-37.5 102z" />
<glyph unicode="&#xc5;" d="M-68 -4l35 178q73 19 113 113l432 1028l547 33l28 -25q98 -789 127 -1010q9 -69 32 -100t65 -37l12 -20l-37 -162q-171 4 -282 4q-84 0 -180.5 -2.5t-151.5 -5.5l-54 -2l-14 18l33 172q86 9 110.5 22t24.5 48v117q-133 4 -149 4l-158 -11l-27 -90q-12 -41 -12 -55 q0 -17 11 -24t36 -7h55l15 -20l-37 -170q-186 6 -307 6zM561 616h98q14 0 29 1t35.5 2t36.5 2l-21 358h-45zM614 1579q0 105 70.5 176.5t179.5 71.5q93 0 138 -49.5t45 -124.5q0 -102 -70.5 -179t-183.5 -77q-86 0 -132.5 49t-46.5 133zM758 1604q0 -33 20.5 -48.5 t46.5 -15.5q28 0 53 18t25 60q0 61 -69 61q-37 0 -56.5 -20.5t-19.5 -54.5z" />
<glyph unicode="&#xc6;" horiz-adv-x="1875" d="M-49 -4l16 178q77 17 127 113l412 800q-1 32 -11.5 45t-33.5 13l-51 -4l-23 28l39 162q335 -6 676 -6q213 1 424.5 9t269.5 16l23 -33q-62 -215 -97 -408l-284 -18q14 65 14 100q0 53 -36.5 70.5t-139.5 17.5q-70 0 -70 -49l13 -268l143 26l207 54l30 -35l-51 -238 l-196 -24l-127 -25l2 -149q3 -138 90 -138q108 0 150 40.5t77 179.5l264 18l23 -31q-62 -199 -109 -422l-34 -32q-329 14 -725 14q-76 -1 -162 -4t-135 -6l-48 -2l-12 18l33 172q83 9 110.5 26.5t32.5 61.5q6 60 6 66l7 117l-150 -27l-158 -47l-38 -109q-19 -55 -19 -59 q0 -18 16.5 -21.5t74.5 -3.5h16l6 -20l-35 -170q-3 1 -162 3.5t-235 2.5zM623 664l82 8l100 18l8 289h-45z" />
<glyph unicode="&#xc7;" horiz-adv-x="1196" d="M37 530q0 401 192.5 610.5t561.5 209.5q76 0 189.5 -13.5t189.5 -26.5l75 -14l12 -41q-65 -188 -110 -438l-320 -18q23 116 23 153q0 55 -35 85t-100 30q-112 0 -159.5 -119t-47.5 -399q0 -153 32 -218t107 -65t111 48.5t65 189.5l318 20q-53 -239 -76 -436l-31 -33 q-20 -7 -55 -18t-140.5 -32t-207.5 -25l-17 -56q46 -24 86 -51.5t75.5 -71t35.5 -84.5q0 -88 -97.5 -151.5t-232.5 -63.5q-62 0 -115 29t-53 76q0 41 125 151h17q-4 -56 18 -85t64 -29q29 0 46 13t17 36q0 48 -158 129l58 160q-223 19 -343 160t-120 388z" />
<glyph unicode="&#xc8;" horiz-adv-x="1200" d="M-41 -20l41 188q75 12 107.5 50t42.5 130l88 686q8 66 -0.5 88.5t-40.5 22.5l-52 -4l-20 28l39 162q287 -6 471 -6q416 0 618 25l23 -33q-63 -215 -96 -408l-287 -18q16 65 16 100q0 53 -36.5 70.5t-139.5 17.5q-39 0 -52 -10.5t-19 -44.5l-41 -231q17 0 74 -1t87 -1 l219 12l21 -29l-57 -235q-146 6 -236 6q-29 0 -149 -13q-2 -13 -11 -72.5t-13.5 -95t-4.5 -55.5q0 -44 17.5 -58.5t64.5 -14.5q123 0 169 39.5t81 177.5l264 18l22 -31q-61 -199 -108 -422l-35 -32q-325 14 -637 14q-93 0 -200.5 -5t-168.5 -10zM438 1561l74 221l33 10 q258 -111 510 -205l-43 -145l-39 -27q-113 28 -243 56.5t-204 42.5l-73 14z" />
<glyph unicode="&#xc9;" horiz-adv-x="1200" d="M-41 -20l41 188q75 12 107.5 50t42.5 130l88 686q8 66 -0.5 88.5t-40.5 22.5l-52 -4l-20 28l39 162q287 -6 471 -6q416 0 618 25l23 -33q-63 -215 -96 -408l-287 -18q16 65 16 100q0 53 -36.5 70.5t-139.5 17.5q-39 0 -52 -10.5t-19 -44.5l-41 -231q17 0 74 -1t87 -1 l219 12l21 -29l-57 -235q-146 6 -236 6q-29 0 -149 -13q-2 -13 -11 -72.5t-13.5 -95t-4.5 -55.5q0 -44 17.5 -58.5t64.5 -14.5q123 0 169 39.5t81 177.5l264 18l22 -31q-61 -199 -108 -422l-35 -32q-325 14 -637 14q-93 0 -200.5 -5t-168.5 -10zM440 1587q112 42 239.5 93 t198.5 82l72 30l33 -10l74 -221l-15 -33q-266 -50 -520 -113l-39 27z" />
<glyph unicode="&#xca;" horiz-adv-x="1200" d="M-41 -20l41 188q75 12 107.5 50t42.5 130l88 686q8 66 -0.5 88.5t-40.5 22.5l-52 -4l-20 28l39 162q287 -6 471 -6q416 0 618 25l23 -33q-63 -215 -96 -408l-287 -18q16 65 16 100q0 53 -36.5 70.5t-139.5 17.5q-39 0 -52 -10.5t-19 -44.5l-41 -231q17 0 74 -1t87 -1 l219 12l21 -29l-57 -235q-146 6 -236 6q-29 0 -149 -13q-2 -13 -11 -72.5t-13.5 -95t-4.5 -55.5q0 -44 17.5 -58.5t64.5 -14.5q123 0 169 39.5t81 177.5l264 18l22 -31q-61 -199 -108 -422l-35 -32q-325 14 -637 14q-93 0 -200.5 -5t-168.5 -10zM408 1577q81 56 178 126.5 t154 113.5l57 43h55q1 5 45.5 -35.5t128 -117.5t145.5 -130l-88 -127l-49 -14q-51 24 -250 104q-153 -56 -274 -104l-45 14z" />
<glyph unicode="&#xcb;" horiz-adv-x="1200" d="M-41 -20l41 188q75 12 107.5 50t42.5 130l88 686q8 66 -0.5 88.5t-40.5 22.5l-52 -4l-20 28l39 162q287 -6 471 -6q416 0 618 25l23 -33q-63 -215 -96 -408l-287 -18q16 65 16 100q0 53 -36.5 70.5t-139.5 17.5q-39 0 -52 -10.5t-19 -44.5l-41 -231q17 0 74 -1t87 -1 l219 12l21 -29l-57 -235q-146 6 -236 6q-29 0 -149 -13q-2 -13 -11 -72.5t-13.5 -95t-4.5 -55.5q0 -44 17.5 -58.5t64.5 -14.5q123 0 169 39.5t81 177.5l264 18l22 -31q-61 -199 -108 -422l-35 -32q-325 14 -637 14q-93 0 -200.5 -5t-168.5 -10zM428 1561q0 92 55 148 t144 56q67 0 104 -36.5t37 -102.5q0 -91 -54 -147t-143 -56q-70 0 -106.5 35.5t-36.5 102.5zM811 1561q0 92 55 148t144 56q69 0 106 -36.5t37 -102.5q0 -91 -54.5 -147t-142.5 -56q-70 0 -107.5 36t-37.5 102z" />
<glyph unicode="&#xcc;" horiz-adv-x="735" d="M-35 -10l37 174q83 19 111 51t37 117l88 708q7 63 -4.5 84t-53.5 21l-49 -2l-16 28l35 154h325l348 10l-37 -184q-68 -10 -90 -29.5t-34 -77.5q-30 -168 -72.5 -450.5t-42.5 -337.5q0 -45 11.5 -61.5t39.5 -16.5q18 0 34 1.5t23 2.5l7 2l12 -20l-39 -172q-250 8 -334 8 q-56 0 -140 -2.5t-140 -5.5zM168 1561l74 221l32 10q258 -111 510 -205l-43 -145l-39 -27q-113 28 -243 56.5t-203 42.5l-74 14z" />
<glyph unicode="&#xcd;" horiz-adv-x="735" d="M-35 -10l37 174q83 19 111 51t37 117l88 708q7 63 -4.5 84t-53.5 21l-49 -2l-16 28l35 154h325l348 10l-37 -184q-68 -10 -90 -29.5t-34 -77.5q-30 -168 -72.5 -450.5t-42.5 -337.5q0 -45 11.5 -61.5t39.5 -16.5q18 0 34 1.5t23 2.5l7 2l12 -20l-39 -172q-250 8 -334 8 q-56 0 -140 -2.5t-140 -5.5zM197 1587q112 42 239.5 93t199.5 82l71 30l32 -10l74 -221l-14 -33q-266 -50 -520 -113l-39 27z" />
<glyph unicode="&#xce;" horiz-adv-x="735" d="M-35 -10l37 174q83 19 111 51t37 117l88 708q7 63 -4.5 84t-53.5 21l-49 -2l-16 28l35 154h325l348 10l-37 -184q-68 -10 -90 -29.5t-34 -77.5q-30 -168 -72.5 -450.5t-42.5 -337.5q0 -45 11.5 -61.5t39.5 -16.5q18 0 34 1.5t23 2.5l7 2l12 -20l-39 -172q-250 8 -334 8 q-56 0 -140 -2.5t-140 -5.5zM123 1577q81 56 178 126.5t154 113.5l57 43h55q1 5 46 -35.5t128.5 -117.5t145.5 -130l-88 -127l-49 -14q-51 24 -250 104q-165 -60 -275 -104l-45 14z" />
<glyph unicode="&#xcf;" horiz-adv-x="735" d="M-35 -10l37 174q83 19 111 51t37 117l88 708q7 63 -4.5 84t-53.5 21l-49 -2l-16 28l35 154h325l348 10l-37 -184q-68 -10 -90 -29.5t-34 -77.5q-30 -168 -72.5 -450.5t-42.5 -337.5q0 -45 11.5 -61.5t39.5 -16.5q18 0 34 1.5t23 2.5l7 2l12 -20l-39 -172q-250 8 -334 8 q-56 0 -140 -2.5t-140 -5.5zM143 1561q0 92 55 148t144 56q67 0 104 -36.5t37 -102.5q0 -91 -53.5 -147t-142.5 -56q-70 0 -107 36t-37 102zM526 1561q0 92 55 148t144 56q69 0 106 -36.5t37 -102.5q0 -91 -54 -147t-142 -56q-70 0 -108 36t-38 102z" />
<glyph unicode="&#xd0;" horiz-adv-x="1392" d="M8 -16l41 190q73 12 104 47t44 123l24 201h-180l-18 16l49 182h174l35 287q7 64 0 87.5t-35 23.5l-64 -4l-16 28l39 166q223 -6 305 -6q41 0 119 3t136 6l58 3q281 0 430.5 -130.5t149.5 -383.5q0 -382 -217.5 -615t-573.5 -233q-188 25 -313 25q-50 0 -123 -4t-120 -8z M588 297q0 -37 12 -51.5t41 -14.5q143 0 217 148.5t74 435.5q0 146 -42 204t-147 58q-22 0 -31.5 -11.5t-15.5 -43.5q-10 -50 -45 -277l144 7l14 -21l-37 -184h-149q-35 -233 -35 -250z" />
<glyph unicode="&#xd1;" horiz-adv-x="1470" d="M-25 -16l43 184q60 8 90 38t39 91l111 715q9 71 -15 95t-116 34l-21 28l31 166q149 -10 299 -10q49 0 114.5 2t106.5 4l41 2q58 -148 130 -310.5t114 -251.5l43 -89h31l37 375q4 52 -7 70t-47 18h-61l-8 22l31 166q222 -8 335 -8q281 0 281 6l-33 -184q-64 -9 -92 -37.5 t-37 -91.5l-151 -1018l-394 -25q-74 169 -150.5 336.5t-116.5 250.5l-40 83h-31l-36 -364q-6 -59 7.5 -82t57.5 -23l66 8l16 -18l-43 -174q-225 8 -309 8q-63 0 -142 -4t-127 -8zM485 1493l4 33l191 235l35 8q36 0 152.5 -34.5t144.5 -34.5q22 0 59 30t63 60l27 29h33 l106 -111l-4 -33l-190 -235l-35 -8q-36 0 -152.5 34.5t-144.5 34.5q-23 0 -60 -30t-63 -59l-26 -30h-33z" />
<glyph unicode="&#xd2;" horiz-adv-x="1296" d="M37 524q0 397 185.5 611.5t539.5 214.5q262 0 403.5 -136t141.5 -399q0 -397 -189 -618.5t-538 -221.5q-256 0 -399.5 142.5t-143.5 406.5zM467 1561l74 221l32 10q258 -111 510 -205l-43 -145l-39 -27q-113 28 -243 56.5t-204 42.5l-73 14zM506 479q0 -126 31.5 -186 t97.5 -60q106 0 152.5 137.5t46.5 452.5q0 246 -134 246q-103 0 -148.5 -138.5t-45.5 -451.5z" />
<glyph unicode="&#xd3;" horiz-adv-x="1296" d="M37 524q0 397 185.5 611.5t539.5 214.5q262 0 403.5 -136t141.5 -399q0 -397 -189 -618.5t-538 -221.5q-256 0 -399.5 142.5t-143.5 406.5zM465 1587q112 42 239.5 93t199.5 82l71 30l33 -10l73 -221l-14 -33q-266 -50 -520 -113l-39 27zM506 479q0 -126 31.5 -186 t97.5 -60q106 0 152.5 137.5t46.5 452.5q0 246 -134 246q-103 0 -148.5 -138.5t-45.5 -451.5z" />
<glyph unicode="&#xd4;" horiz-adv-x="1296" d="M37 524q0 397 185.5 611.5t539.5 214.5q262 0 403.5 -136t141.5 -399q0 -397 -189 -618.5t-538 -221.5q-256 0 -399.5 142.5t-143.5 406.5zM403 1577q81 56 178.5 126.5t154.5 113.5l57 43h55q1 5 45.5 -35.5t128 -117.5t145.5 -130l-88 -127l-49 -14q-51 24 -250 104 q-153 -56 -274 -104l-45 14zM506 479q0 -126 31.5 -186t97.5 -60q106 0 152.5 137.5t46.5 452.5q0 246 -134 246q-103 0 -148.5 -138.5t-45.5 -451.5z" />
<glyph unicode="&#xd5;" horiz-adv-x="1296" d="M37 524q0 397 185.5 611.5t539.5 214.5q262 0 403.5 -136t141.5 -399q0 -397 -189 -618.5t-538 -221.5q-256 0 -399.5 142.5t-143.5 406.5zM383 1493l4 33l191 235l34 8q36 0 152.5 -34.5t144.5 -34.5q22 0 59.5 30t63.5 60l27 29h33l106 -111l-4 -33l-190 -235l-35 -8 q-36 0 -152.5 34.5t-144.5 34.5q-23 0 -60.5 -30t-63.5 -59l-26 -30h-33zM506 479q0 -126 31.5 -186t97.5 -60q106 0 152.5 137.5t46.5 452.5q0 246 -134 246q-103 0 -148.5 -138.5t-45.5 -451.5z" />
<glyph unicode="&#xd6;" horiz-adv-x="1296" d="M37 524q0 397 185.5 611.5t539.5 214.5q262 0 403.5 -136t141.5 -399q0 -397 -189 -618.5t-538 -221.5q-256 0 -399.5 142.5t-143.5 406.5zM424 1561q0 92 55 148t144 56q67 0 104 -36.5t37 -102.5q0 -91 -54 -147t-143 -56q-70 0 -106.5 35.5t-36.5 102.5zM506 479 q0 -126 31.5 -186t97.5 -60q106 0 152.5 137.5t46.5 452.5q0 246 -134 246q-103 0 -148.5 -138.5t-45.5 -451.5zM807 1561q0 92 55 148t144 56q69 0 106 -36.5t37 -102.5q0 -91 -54.5 -147t-142.5 -56q-70 0 -107.5 36t-37.5 102z" />
<glyph unicode="&#xd7;" horiz-adv-x="1005" d="M70 272q106 101 219 203l-195 232l10 32l242 170q90 -112 180 -221q53 49 115.5 110t98.5 98l36 36l29 -12l145 -209l-241 -228l196 -219l-16 -33l-236 -178l-184 217l-233 -217l-31 6z" />
<glyph unicode="&#xd8;" horiz-adv-x="1296" d="M18 -106l156 229q-137 143 -137 401q0 397 185.5 611.5t539.5 214.5q111 0 209 -29l141 219l199 -110l4 -27l-135 -205q127 -139 127 -383q0 -397 -189 -618.5t-538 -221.5q-105 0 -197 25l-162 -240l-194 113zM506 479q0 -126 31.5 -186t97.5 -60q106 0 152.5 137.5 t46.5 452.5q0 246 -134 246q-103 0 -148.5 -138.5t-45.5 -451.5z" />
<glyph unicode="&#xd9;" horiz-adv-x="1239" d="M78 1149l43 182q196 -6 356 -6l271 8l-43 -190q-53 -6 -77 -29t-30 -72l-84 -591q-4 -36 -4 -58q-3 -157 121 -157q71 0 106.5 41t48.5 139l74 618q8 65 0 88t-37 23l-43 -4l-6 8l45 182q166 -6 238 -6l293 6l-39 -184q-64 -22 -82 -37.5t-23 -52.5l-71 -578 q-34 -255 -175 -379.5t-399 -124.5q-236 0 -350.5 86.5t-114.5 264.5q0 38 6 82l78 626q8 69 0.5 90t-41.5 21l-57 -4zM451 1561l73 221l33 10q258 -111 510 -205l-43 -145l-39 -27q-113 28 -243 56.5t-204 42.5l-73 14z" />
<glyph unicode="&#xda;" horiz-adv-x="1239" d="M78 1149l43 182q196 -6 356 -6l271 8l-43 -190q-53 -6 -77 -29t-30 -72l-84 -591q-4 -36 -4 -58q-3 -157 121 -157q71 0 106.5 41t48.5 139l74 618q8 65 0 88t-37 23l-43 -4l-6 8l45 182q166 -6 238 -6l293 6l-39 -184q-64 -22 -82 -37.5t-23 -52.5l-71 -578 q-34 -255 -175 -379.5t-399 -124.5q-236 0 -350.5 86.5t-114.5 264.5q0 38 6 82l78 626q8 69 0.5 90t-41.5 21l-57 -4zM453 1587q112 42 239.5 93t199.5 82l71 30l32 -10l74 -221l-14 -33q-266 -50 -520 -113l-39 27z" />
<glyph unicode="&#xdb;" horiz-adv-x="1239" d="M78 1149l43 182q196 -6 356 -6l271 8l-43 -190q-53 -6 -77 -29t-30 -72l-84 -591q-4 -36 -4 -58q-3 -157 121 -157q71 0 106.5 41t48.5 139l74 618q8 65 0 88t-37 23l-43 -4l-6 8l45 182q166 -6 238 -6l293 6l-39 -184q-64 -22 -82 -37.5t-23 -52.5l-71 -578 q-34 -255 -175 -379.5t-399 -124.5q-236 0 -350.5 86.5t-114.5 264.5q0 38 6 82l78 626q8 69 0.5 90t-41.5 21l-57 -4zM420 1577q81 56 178 126.5t154 113.5l57 43h55q1 5 46 -35.5t128.5 -117.5t145.5 -130l-88 -127l-49 -14q-51 24 -250 104q-165 -60 -275 -104l-45 14z " />
<glyph unicode="&#xdc;" horiz-adv-x="1239" d="M78 1149l43 182q196 -6 356 -6l271 8l-43 -190q-53 -6 -77 -29t-30 -72l-84 -591q-4 -36 -4 -58q-3 -157 121 -157q71 0 106.5 41t48.5 139l74 618q8 65 0 88t-37 23l-43 -4l-6 8l45 182q166 -6 238 -6l293 6l-39 -184q-64 -22 -82 -37.5t-23 -52.5l-71 -578 q-34 -255 -175 -379.5t-399 -124.5q-236 0 -350.5 86.5t-114.5 264.5q0 38 6 82l78 626q8 69 0.5 90t-41.5 21l-57 -4zM440 1561q0 92 55 148t144 56q67 0 104 -36.5t37 -102.5q0 -91 -53.5 -147t-142.5 -56q-70 0 -107 36t-37 102zM823 1561q0 92 55 148t144 56 q69 0 106 -36.5t37 -102.5q0 -91 -54 -147t-142 -56q-70 0 -108 36t-38 102z" />
<glyph unicode="&#xdd;" horiz-adv-x="1331" d="M82 1141l43 186q237 -4 303 -4q40 0 130.5 3.5t161.5 7.5l71 3l12 -22l-39 -168q-84 0 -84 -55q0 -28 22.5 -124t45.5 -175h28l103 233q36 64 36 94q0 29 -69 29l-4 12l37 162h317q46 0 103 2t91 4l33 2l7 -16l-37 -178q-68 -38 -135 -106t-115 -152l-225 -373 q-27 -49 -37 -89t-17 -102q-9 -72 9 -100.5t75 -28.5q23 0 48.5 2t39.5 4l15 1l8 -13l-41 -192q-301 12 -418 12q-57 0 -160 -4.5t-178 -9.5l-74 -4l39 188q129 9 173.5 40t54.5 122l4 33q11 78 -33 184l-164 407q-41 108 -172 172zM518 1587q112 42 239.5 93t198.5 82 l72 30l33 -10l74 -221l-15 -33q-266 -50 -520 -113l-39 27z" />
<glyph unicode="&#xde;" horiz-adv-x="1208" d="M-35 -10l37 174q80 17 109.5 50t38.5 118l88 708q7 63 -4.5 84t-53.5 21l-49 -2l-16 28l35 154h325l348 10l-37 -184q-74 -15 -94 -27t-26 -45l-2 -10h135q224 0 332 -82t108 -250q0 -203 -154 -327.5t-395 -124.5h-141l-6 -47q-4 -36 7 -48t48 -12q25 0 46 1.5t30 2.5 l8 2l14 -20l-39 -172q-266 8 -356 8q-56 0 -140 -2.5t-140 -5.5zM582 524q85 -20 118 -20q58 17 86.5 70t28.5 131q0 67 -37 98t-116 31q-40 0 -46 -46q-3 -27 -16.5 -128t-17.5 -136z" />
<glyph unicode="&#xdf;" horiz-adv-x="1892" d="M-16 82q53 164 71 260l234 16q-6 -61 24.5 -102t89.5 -41q43 0 69 14t26 37q0 17 -11 32t-37 29.5t-46.5 23.5t-62.5 26l-15 6q-57 25 -92.5 45t-78 54.5t-64 81.5t-21.5 106q0 174 153 277.5t410 103.5q83 0 167 -11.5t126 -22.5l43 -11l18 -39q-49 -136 -80 -279 l-217 -14l-20 14q4 31 4 33q0 42 -27 65t-72 23q-41 0 -66.5 -18t-25.5 -46t27.5 -48t87.5 -46q121 -49 158 -69q152 -91 155 -234q0 -173 -150 -269.5t-415 -96.5q-89 0 -175 17t-127 35l-42 17zM930 82q53 164 71 260l234 16q-6 -61 24.5 -102t90.5 -41q43 0 68.5 14 t25.5 37q0 17 -11 32t-37 29.5t-46.5 23.5t-62.5 26q-3 1 -5 2t-5 2t-5 2q-57 25 -92.5 45t-78 54.5t-64 81.5t-21.5 106q0 174 153 277.5t410 103.5q83 0 167 -11.5t126 -22.5l43 -11l18 -39q-49 -136 -80 -279l-217 -14l-20 14q4 31 4 33q0 42 -26.5 65t-71.5 23 q-41 0 -66.5 -18t-25.5 -46t27.5 -48t86.5 -46q121 -49 158 -69q152 -93 156 -234q0 -173 -150.5 -269.5t-415.5 -96.5q-89 0 -175 17t-127 35l-42 17z" />
<glyph unicode="&#xe0;" horiz-adv-x="1175" d="M-43 -2l29 149q58 17 86 80l344 797l499 27l25 -23q89 -635 107 -772q10 -97 71 -106l12 -19l-32 -135q-146 2 -242 2l-330 -6l-12 14l27 148q69 8 87.5 16t18.5 33q0 3 1 10t1 12l2 43l-116 2l-125 -6l-15 -53q-8 -24 -8 -37q0 -18 33 -18h39l14 -19l-31 -143 q-160 4 -260 4h-225zM383 1266l74 221l32 10q258 -111 510 -205l-43 -145l-38 -27q-113 28 -243 56t-204 42l-74 15zM492 487h73q39 0 76 2l-12 254h-41z" />
<glyph unicode="&#xe1;" horiz-adv-x="1175" d="M-43 -2l29 149q58 17 86 80l344 797l499 27l25 -23q89 -635 107 -772q10 -97 71 -106l12 -19l-32 -135q-146 2 -242 2l-330 -6l-12 14l27 148q69 8 87.5 16t18.5 33q0 3 1 10t1 12l2 43l-116 2l-125 -6l-15 -53q-8 -24 -8 -37q0 -18 33 -18h39l14 -19l-31 -143 q-160 4 -260 4h-225zM367 1292q112 42 239.5 93t199.5 81l71 31l32 -10l74 -221l-14 -33q-266 -50 -520 -113l-39 27zM492 487h73q39 0 76 2l-12 254h-41z" />
<glyph unicode="&#xe2;" horiz-adv-x="1175" d="M-43 -2l29 149q58 17 86 80l344 797l499 27l25 -23q89 -635 107 -772q10 -97 71 -106l12 -19l-32 -135q-146 2 -242 2l-330 -6l-12 14l27 148q69 8 87.5 16t18.5 33q0 3 1 10t1 12l2 43l-116 2l-125 -6l-15 -53q-8 -24 -8 -37q0 -18 33 -18h39l14 -19l-31 -143 q-160 4 -260 4h-225zM309 1282q81 56 178 126.5t154 113.5l57 43h56q1 5 45.5 -35.5t128 -117.5t145.5 -130l-88 -127l-49 -14q-51 24 -250 104q-153 -56 -274 -104l-45 14zM492 487h73q39 0 76 2l-12 254h-41z" />
<glyph unicode="&#xe3;" horiz-adv-x="1175" d="M-43 -2l29 149q58 17 86 80l344 797l499 27l25 -23q89 -635 107 -772q10 -97 71 -106l12 -19l-32 -135q-146 2 -242 2l-330 -6l-12 14l27 148q69 8 87.5 16t18.5 33q0 3 1 10t1 12l2 43l-116 2l-125 -6l-15 -53q-8 -24 -8 -37q0 -18 33 -18h39l14 -19l-31 -143 q-160 4 -260 4h-225zM287 1198l4 33l190 235l35 9q36 0 152.5 -35t144.5 -35q22 0 59.5 30t63.5 59l27 30h32l107 -111l-4 -33l-191 -235l-35 -8q-36 0 -152.5 34.5t-144.5 34.5q-23 0 -60 -30t-63 -60l-26 -29h-33zM492 487h73q39 0 76 2l-12 254h-41z" />
<glyph unicode="&#xe4;" horiz-adv-x="1175" d="M-43 -2l29 149q58 17 86 80l344 797l499 27l25 -23q89 -635 107 -772q10 -97 71 -106l12 -19l-32 -135q-146 2 -242 2l-330 -6l-12 14l27 148q69 8 87.5 16t18.5 33q0 3 1 10t1 12l2 43l-116 2l-125 -6l-15 -53q-8 -24 -8 -37q0 -18 33 -18h39l14 -19l-31 -143 q-160 4 -260 4h-225zM330 1266q0 92 54.5 148t143.5 56q67 0 104.5 -36.5t37.5 -102.5q0 -91 -54 -147t-143 -56q-70 0 -106.5 35.5t-36.5 102.5zM492 487h73q39 0 76 2l-12 254h-41zM713 1266q0 92 54.5 148t143.5 56q69 0 106.5 -36.5t37.5 -102.5q0 -91 -54.5 -147 t-142.5 -56q-70 0 -107.5 36t-37.5 102z" />
<glyph unicode="&#xe5;" horiz-adv-x="1175" d="M-43 -2l29 149q58 17 86 80l344 797l499 27l25 -23q89 -635 107 -772q10 -97 71 -106l12 -19l-32 -135q-146 2 -242 2l-330 -6l-12 14l27 148q69 8 87.5 16t18.5 33q0 3 1 10t1 12l2 43l-116 2l-125 -6l-15 -53q-8 -24 -8 -37q0 -18 33 -18h39l14 -19l-31 -143 q-160 4 -260 4h-225zM485 1284q0 105 70.5 176.5t179.5 71.5q93 0 138 -49.5t45 -124.5q0 -102 -70.5 -179t-183.5 -77q-86 0 -132.5 49t-46.5 133zM492 487h73q39 0 76 2l-12 254h-41zM629 1309q0 -33 20.5 -48.5t46.5 -15.5q28 0 53 18t25 60q0 61 -69 61 q-37 0 -56.5 -20.5t-19.5 -54.5z" />
<glyph unicode="&#xe6;" horiz-adv-x="1613" d="M-29 -2l15 152q70 17 102 77l318 604q-1 28 -9.5 39t-27.5 11l-41 -4l-21 24l33 135q0 1 80 0t234 -2.5t284 -1.5q440 4 586 19l20 -27q-49 -176 -78 -326l-256 -16q13 49 13 74q0 39 -29.5 52t-106.5 13q-51 0 -51 -35l15 -182l108 21l174 45l29 -31l-43 -201l-166 -22 l-96 -19l2 -90q3 -106 69 -106q79 0 111.5 31.5t60.5 134.5l238 14l21 -27q-52 -158 -91 -338l-30 -26q0 -1 -75 1.5t-231 5.5t-309 3l-291 -8l-12 14l29 146q68 8 88.5 18t24.5 41q4 32 4 49l6 74l-119 -23l-129 -41l-16 -61q-2 -7 -6 -15.5t-6.5 -14.5t-2.5 -9 q0 -14 90 -14l-6 -19l-28 -143q-8 4 -343 4h-135zM543 520l59 6l78 15l6 202h-41z" />
<glyph unicode="&#xe7;" horiz-adv-x="1017" d="M33 422q0 631 618 631q63 0 159.5 -10.5t161.5 -21.5l66 -11l13 -37q-53 -149 -90 -352l-291 -17q18 94 18 123q0 38 -26 60t-72 22q-78 0 -107.5 -79.5t-29.5 -283.5q0 -126 19 -169.5t73 -43.5q55 0 79 33.5t44 139.5l286 18q-41 -194 -57 -354l-27 -27 q-139 -47 -321 -57l-19 -62q46 -24 86 -51.5t75.5 -71t35.5 -84.5q0 -88 -97.5 -151.5t-232.5 -63.5q-62 0 -115 29t-53 76q0 41 125 151h17q-4 -56 18 -85t64 -29q29 0 46 13t17 36q0 48 -158 129l60 164q-188 15 -286.5 126.5t-98.5 309.5z" />
<glyph unicode="&#xe8;" horiz-adv-x="1028" d="M-35 -16l35 159q62 11 88 40.5t33 101.5l67 508q6 52 -0.5 69t-31.5 17l-41 -2l-21 24l33 137q254 -6 414 -6q355 0 516 21l20 -29q-53 -176 -78 -328l-260 -14q15 47 15 72q0 39 -29 53t-107 14q-27 0 -36.5 -7.5t-14.5 -31.5l-30 -157h131l178 8l18 -27l-47 -198 q-118 4 -190 4q-28 0 -77 -4l-48 -5q0 -2 -9.5 -62.5t-9.5 -80.5q0 -34 13.5 -45.5t48.5 -11.5q91 0 126.5 31t61.5 133l240 16l20 -27q-51 -158 -88 -340l-33 -26q-261 10 -532 10q-80 0 -173.5 -4t-147.5 -8zM322 1266l73 221l33 10q258 -111 510 -205l-43 -145l-39 -27 q-113 28 -243 56.5t-203 42.5l-74 14z" />
<glyph unicode="&#xe9;" horiz-adv-x="1028" d="M-35 -16l35 159q62 11 88 40.5t33 101.5l67 508q6 52 -0.5 69t-31.5 17l-41 -2l-21 24l33 137q254 -6 414 -6q355 0 516 21l20 -29q-53 -176 -78 -328l-260 -14q15 47 15 72q0 39 -29 53t-107 14q-27 0 -36.5 -7.5t-14.5 -31.5l-30 -157h131l178 8l18 -27l-47 -198 q-118 4 -190 4q-28 0 -77 -4l-48 -5q0 -2 -9.5 -62.5t-9.5 -80.5q0 -34 13.5 -45.5t48.5 -11.5q91 0 126.5 31t61.5 133l240 16l20 -27q-51 -158 -88 -340l-33 -26q-261 10 -532 10q-80 0 -173.5 -4t-147.5 -8zM305 1292q112 42 239.5 93t199.5 81l71 31l33 -10l74 -221 l-15 -33q-266 -50 -520 -113l-39 27z" />
<glyph unicode="&#xea;" horiz-adv-x="1028" d="M-35 -16l35 159q62 11 88 40.5t33 101.5l67 508q6 52 -0.5 69t-31.5 17l-41 -2l-21 24l33 137q254 -6 414 -6q355 0 516 21l20 -29q-53 -176 -78 -328l-260 -14q15 47 15 72q0 39 -29 53t-107 14q-27 0 -36.5 -7.5t-14.5 -31.5l-30 -157h131l178 8l18 -27l-47 -198 q-118 4 -190 4q-28 0 -77 -4l-48 -5q0 -2 -9.5 -62.5t-9.5 -80.5q0 -34 13.5 -45.5t48.5 -11.5q91 0 126.5 31t61.5 133l240 16l20 -27q-51 -158 -88 -340l-33 -26q-261 10 -532 10q-80 0 -173.5 -4t-147.5 -8zM276 1282q81 56 178.5 126.5t154.5 113.5l57 43h55 q1 5 45.5 -35.5t128 -117.5t145.5 -130l-88 -127l-49 -14q-51 24 -250 104q-153 -56 -274 -104l-45 14z" />
<glyph unicode="&#xeb;" horiz-adv-x="1028" d="M-35 -16l35 159q62 11 88 40.5t33 101.5l67 508q6 52 -0.5 69t-31.5 17l-41 -2l-21 24l33 137q254 -6 414 -6q355 0 516 21l20 -29q-53 -176 -78 -328l-260 -14q15 47 15 72q0 39 -29 53t-107 14q-27 0 -36.5 -7.5t-14.5 -31.5l-30 -157h131l178 8l18 -27l-47 -198 q-118 4 -190 4q-28 0 -77 -4l-48 -5q0 -2 -9.5 -62.5t-9.5 -80.5q0 -34 13.5 -45.5t48.5 -11.5q91 0 126.5 31t61.5 133l240 16l20 -27q-51 -158 -88 -340l-33 -26q-261 10 -532 10q-80 0 -173.5 -4t-147.5 -8zM297 1266q0 92 55 148t144 56q67 0 104 -36.5t37 -102.5 q0 -91 -54 -147t-143 -56q-70 0 -106.5 35.5t-36.5 102.5zM680 1266q0 92 55 148t144 56q69 0 106 -36.5t37 -102.5q0 -91 -54.5 -147t-142.5 -56q-70 0 -107.5 36t-37.5 102z" />
<glyph unicode="&#xec;" horiz-adv-x="641" d="M-27 -6l29 147q67 13 90 38t29 91l67 529q6 49 -4.5 64.5t-44.5 15.5h-37q-6 8 -14 24l29 129h278l303 6l-30 -155q-56 -7 -73 -22t-28 -60q-21 -103 -54.5 -324.5t-33.5 -265.5q0 -34 9 -46.5t32 -12.5l49 4l11 -19l-33 -143q-215 6 -285 6zM96 1266l74 221l33 10 q258 -111 510 -205l-43 -145l-39 -27q-113 28 -243 56.5t-204 42.5l-73 14z" />
<glyph unicode="&#xed;" horiz-adv-x="641" d="M-27 -6l29 147q67 13 90 38t29 91l67 529q6 49 -4.5 64.5t-44.5 15.5h-37q-6 8 -14 24l29 129h278l303 6l-30 -155q-56 -7 -73 -22t-28 -60q-21 -103 -54.5 -324.5t-33.5 -265.5q0 -34 9 -46.5t32 -12.5l49 4l11 -19l-33 -143q-215 6 -285 6zM98 1292q112 42 239.5 93 t198.5 81l72 31l33 -10l74 -221l-15 -33q-266 -50 -520 -113l-39 27z" />
<glyph unicode="&#xee;" horiz-adv-x="641" d="M-27 -6l29 147q67 13 90 38t29 91l67 529q6 49 -4.5 64.5t-44.5 15.5h-37q-6 8 -14 24l29 129h278l303 6l-30 -155q-56 -7 -73 -22t-28 -60q-21 -103 -54.5 -324.5t-33.5 -265.5q0 -34 9 -46.5t32 -12.5l49 4l11 -19l-33 -143q-215 6 -285 6zM37 1282q81 56 178 126.5 t154 113.5l57 43h55q1 5 46 -35.5t128.5 -117.5t145.5 -130l-88 -127l-49 -14q-51 24 -250 104q-165 -60 -275 -104l-45 14z" />
<glyph unicode="&#xef;" horiz-adv-x="641" d="M-27 -6l29 147q67 13 90 38t29 91l67 529q6 49 -4.5 64.5t-44.5 15.5h-37q-6 8 -14 24l29 129h278l303 6l-30 -155q-56 -7 -73 -22t-28 -60q-21 -103 -54.5 -324.5t-33.5 -265.5q0 -34 9 -46.5t32 -12.5l49 4l11 -19l-33 -143q-215 6 -285 6zM66 1266q0 92 54.5 148 t143.5 56q67 0 104.5 -36.5t37.5 -102.5q0 -91 -54 -147t-143 -56q-70 0 -106.5 35.5t-36.5 102.5zM449 1266q0 92 54.5 148t143.5 56q69 0 106.5 -36.5t37.5 -102.5q0 -91 -54.5 -147t-142.5 -56q-70 0 -107.5 36t-37.5 102z" />
<glyph unicode="&#xf0;" horiz-adv-x="1183" d="M10 -12l35 162q59 9 84 36t35 95l16 133h-141l-14 12l41 158h135l26 207q5 50 -1 68t-27 18l-52 -5l-16 25l33 141q196 -6 264 -6l264 10q236 0 360 -100.5t124 -300.5q0 -302 -178 -480.5t-478 -178.5q-156 18 -262 18q-42 0 -104 -3t-103 -6zM516 242q0 -41 25 -41 q213 0 213 432q0 108 -25 146t-96 38q-15 0 -23 -9.5t-12 -33.5q-1 3 -9.5 -46.5t-23.5 -141.5l99 4l12 -17l-31 -159h-104q-25 -171 -25 -172z" />
<glyph unicode="&#xf1;" horiz-adv-x="1255" d="M-20 -12l36 155q49 6 74 30t33 71l84 530q7 55 -12 73t-95 27l-20 25l26 141q128 -8 263 -8l231 6q43 -102 96.5 -215.5t85.5 -176.5l33 -62h27l22 227q3 42 -6 56t-39 14h-49l-8 18l24 139q197 -6 295 -6q242 0 242 4l-27 -155q-52 -7 -74 -29t-30 -72l-117 -772 l-362 -18q-56 116 -113 229.5t-86 168.5l-29 56h-28l-21 -211q-5 -48 7.5 -65.5t50.5 -17.5l51 6l14 -15l-35 -147q-198 6 -268 6q-56 0 -125 -3t-110 -6zM336 1198l4 33l190 235l35 9q36 0 152.5 -35t144.5 -35q22 0 59.5 30t64.5 59l26 30h32l107 -111l-4 -33l-191 -235 l-34 -8q-36 0 -152.5 34.5t-144.5 34.5q-23 0 -60.5 -30t-63.5 -60l-26 -29h-33z" />
<glyph unicode="&#xf2;" horiz-adv-x="1097" d="M33 418q0 313 149.5 474t446.5 161q224 0 341 -105.5t117 -318.5q0 -313 -151.5 -480t-443.5 -167q-220 0 -339.5 110.5t-119.5 325.5zM342 1266l74 221l33 10q257 -111 509 -205l-43 -145l-38 -27q-113 28 -243 56t-204 42l-74 15zM453 391q0 -106 18.5 -147t63.5 -41 q73 0 102 94t29 326q0 105 -19.5 146.5t-66.5 41.5q-70 0 -98.5 -94.5t-28.5 -325.5z" />
<glyph unicode="&#xf3;" horiz-adv-x="1097" d="M33 418q0 313 149.5 474t446.5 161q224 0 341 -105.5t117 -318.5q0 -313 -151.5 -480t-443.5 -167q-220 0 -339.5 110.5t-119.5 325.5zM319 1292q112 42 239.5 93t199.5 81l71 31l33 -10l74 -221l-14 -33q-267 -50 -521 -113l-39 27zM453 391q0 -106 18.5 -147t63.5 -41 q73 0 102 94t29 326q0 105 -19.5 146.5t-66.5 41.5q-70 0 -98.5 -94.5t-28.5 -325.5z" />
<glyph unicode="&#xf4;" horiz-adv-x="1097" d="M33 418q0 313 149.5 474t446.5 161q224 0 341 -105.5t117 -318.5q0 -313 -151.5 -480t-443.5 -167q-220 0 -339.5 110.5t-119.5 325.5zM268 1282q81 56 178 126.5t154 113.5l57 43h56q1 5 45.5 -35.5t128 -117.5t145.5 -130l-88 -127l-49 -14q-51 24 -250 104 q-153 -56 -274 -104l-45 14zM453 391q0 -106 18.5 -147t63.5 -41q73 0 102 94t29 326q0 105 -19.5 146.5t-66.5 41.5q-70 0 -98.5 -94.5t-28.5 -325.5z" />
<glyph unicode="&#xf5;" horiz-adv-x="1097" d="M33 418q0 313 149.5 474t446.5 161q224 0 341 -105.5t117 -318.5q0 -313 -151.5 -480t-443.5 -167q-220 0 -339.5 110.5t-119.5 325.5zM244 1198l4 33l190 235l35 9q36 0 152.5 -35t144.5 -35q22 0 59.5 30t64.5 59l26 30h32l107 -111l-4 -33l-191 -235l-35 -8 q-36 0 -152.5 34.5t-144.5 34.5q-23 0 -60 -30t-63 -60l-26 -29h-33zM453 391q0 -106 18.5 -147t63.5 -41q73 0 102 94t29 326q0 105 -19.5 146.5t-66.5 41.5q-70 0 -98.5 -94.5t-28.5 -325.5z" />
<glyph unicode="&#xf6;" horiz-adv-x="1097" d="M33 418q0 313 149.5 474t446.5 161q224 0 341 -105.5t117 -318.5q0 -313 -151.5 -480t-443.5 -167q-220 0 -339.5 110.5t-119.5 325.5zM289 1266q0 92 54.5 148t143.5 56q67 0 104.5 -36.5t37.5 -102.5q0 -91 -54 -147t-143 -56q-70 0 -106.5 35.5t-36.5 102.5zM453 391 q0 -106 18.5 -147t63.5 -41q73 0 102 94t29 326q0 105 -19.5 146.5t-66.5 41.5q-70 0 -98.5 -94.5t-28.5 -325.5zM672 1266q0 92 54.5 148t143.5 56q69 0 106.5 -36.5t37.5 -102.5q0 -91 -54.5 -147t-142.5 -56q-70 0 -107.5 36t-37.5 102z" />
<glyph unicode="&#xf7;" horiz-adv-x="1005" d="M18 387l70 277q277 -2 453 -2q71 0 181.5 3t185.5 6l75 3l10 -31l-61 -278l-451 -3l-448 -2zM281 106q0 96 54 152.5t146 56.5q68 0 105 -37t37 -104q0 -95 -54 -152t-145 -57q-70 0 -106.5 37t-36.5 104zM371 846q0 96 54.5 152.5t147.5 56.5q67 0 104.5 -38t37.5 -104 q0 -95 -55 -151.5t-146 -56.5q-70 0 -106.5 37t-36.5 104z" />
<glyph unicode="&#xf8;" horiz-adv-x="1097" d="M-8 -66l137 181q-96 110 -96 303q0 313 149.5 474t446.5 161q97 0 174 -21l143 195l197 -113l2 -22l-137 -187q79 -101 79 -276q0 -313 -151.5 -480t-443.5 -167q-79 0 -154 16l-148 -197l-192 117zM453 391q0 -106 18.5 -147t63.5 -41q73 0 102 94t29 326 q0 105 -19.5 146.5t-66.5 41.5q-70 0 -98.5 -94.5t-28.5 -325.5z" />
<glyph unicode="&#xf9;" horiz-adv-x="1046" d="M59 883l35 155q171 -6 312 -6l231 4l-37 -159q-42 -5 -61.5 -22.5t-22.5 -53.5l-65 -459q-5 -30 -5 -39q0 -100 84 -100q50 0 73 25t32 91l57 474q7 51 1 68.5t-29 17.5l-31 -2l-6 6l39 155q139 -6 198 -6l254 4l-33 -157q-50 -17 -64 -29t-17 -37l-54 -432 q-28 -205 -143.5 -302t-333.5 -97q-201 0 -298.5 65t-98.5 203q0 28 6 63l59 480q6 55 0 70.5t-32 15.5l-48 -2zM326 1266l73 221l33 10q258 -111 510 -205l-43 -145l-39 -27q-113 28 -243 56.5t-203 42.5l-74 14z" />
<glyph unicode="&#xfa;" horiz-adv-x="1046" d="M59 883l35 155q171 -6 312 -6l231 4l-37 -159q-42 -5 -61.5 -22.5t-22.5 -53.5l-65 -459q-5 -30 -5 -39q0 -100 84 -100q50 0 73 25t32 91l57 474q7 51 1 68.5t-29 17.5l-31 -2l-6 6l39 155q139 -6 198 -6l254 4l-33 -157q-50 -17 -64 -29t-17 -37l-54 -432 q-28 -205 -143.5 -302t-333.5 -97q-201 0 -298.5 65t-98.5 203q0 28 6 63l59 480q6 55 0 70.5t-32 15.5l-48 -2zM301 1292q112 42 239.5 93t199.5 81l71 31l33 -10l74 -221l-15 -33q-266 -50 -520 -113l-39 27z" />
<glyph unicode="&#xfb;" horiz-adv-x="1046" d="M59 883l35 155q171 -6 312 -6l231 4l-37 -159q-42 -5 -61.5 -22.5t-22.5 -53.5l-65 -459q-5 -30 -5 -39q0 -100 84 -100q50 0 73 25t32 91l57 474q7 51 1 68.5t-29 17.5l-31 -2l-6 6l39 155q139 -6 198 -6l254 4l-33 -157q-50 -17 -64 -29t-17 -37l-54 -432 q-28 -205 -143.5 -302t-333.5 -97q-201 0 -298.5 65t-98.5 203q0 28 6 63l59 480q6 55 0 70.5t-32 15.5l-48 -2zM281 1282q81 56 178 126.5t154 113.5l57 43h55q1 5 45.5 -35.5t128 -117.5t145.5 -130l-88 -127l-49 -14q-51 24 -250 104q-153 -56 -274 -104l-45 14z" />
<glyph unicode="&#xfc;" horiz-adv-x="1046" d="M59 883l35 155q171 -6 312 -6l231 4l-37 -159q-42 -5 -61.5 -22.5t-22.5 -53.5l-65 -459q-5 -30 -5 -39q0 -100 84 -100q50 0 73 25t32 91l57 474q7 51 1 68.5t-29 17.5l-31 -2l-6 6l39 155q139 -6 198 -6l254 4l-33 -157q-50 -17 -64 -29t-17 -37l-54 -432 q-28 -205 -143.5 -302t-333.5 -97q-201 0 -298.5 65t-98.5 203q0 28 6 63l59 480q6 55 0 70.5t-32 15.5l-48 -2zM301 1266q0 92 55 148t144 56q67 0 104 -36.5t37 -102.5q0 -91 -54 -147t-143 -56q-70 0 -106.5 35.5t-36.5 102.5zM684 1266q0 92 55 148t144 56 q69 0 106 -36.5t37 -102.5q0 -91 -54.5 -147t-142.5 -56q-70 0 -107.5 36t-37.5 102z" />
<glyph unicode="&#xfd;" horiz-adv-x="1163" d="M74 872l37 162q209 -4 260 -4l309 10l12 -18l-33 -143q-61 3 -61 -39q0 -44 47 -201h27l63 152q31 57 31 71q0 22 -53 19l-4 10l30 137q53 0 142 1t133 1l194 6l4 -12l-30 -154q-54 -32 -110.5 -87t-90.5 -111l-184 -291q-31 -58 -39 -123q-6 -56 9.5 -78t61.5 -22l86 6 l9 -10l-35 -164q-265 10 -365 10q-49 0 -139 -3.5t-155 -6.5l-66 -4l33 159q109 6 146 29t46 90l2 17q8 56 -29 137l-143 321q-25 56 -137 125zM375 1292q112 42 239.5 93t199.5 81l71 31l33 -10l73 -221l-14 -33q-266 -50 -520 -113l-39 27z" />
<glyph unicode="&#xfe;" horiz-adv-x="1046" d="M-27 -6l31 145q65 14 88 39t29 92l67 529q6 49 -4 65.5t-45 16.5l-37 -2l-14 24l29 129h278l301 6l-30 -155q-62 -13 -77.5 -19.5t-19.5 -27.5h111q190 0 281.5 -66t91.5 -201q0 -160 -127 -255t-330 -95h-117l-4 -33q-3 -23 6 -29.5t39 -6.5q21 0 38 1.5t24 2.5l6 2 l12 -19l-33 -143q-231 6 -305 6zM506 420q75 -14 92 -14q78 26 78 141q0 88 -111 88q-32 0 -35 -39z" />
<glyph unicode="&#xff;" horiz-adv-x="1163" d="M74 872l37 162q209 -4 260 -4l309 10l12 -18l-33 -143q-61 3 -61 -39q0 -44 47 -201h27l63 152q31 57 31 71q0 22 -53 19l-4 10l30 137q53 0 142 1t133 1l194 6l4 -12l-30 -154q-54 -32 -110.5 -87t-90.5 -111l-184 -291q-31 -58 -39 -123q-6 -56 9.5 -78t61.5 -22l86 6 l9 -10l-35 -164q-265 10 -365 10q-49 0 -139 -3.5t-155 -6.5l-66 -4l33 159q109 6 146 29t46 90l2 17q8 56 -29 137l-143 321q-25 56 -137 125zM356 1266q0 92 55 148t144 56q67 0 104 -36.5t37 -102.5q0 -91 -53.5 -147t-142.5 -56q-70 0 -107 36t-37 102zM739 1266 q0 92 55 148t144 56q69 0 106 -36.5t37 -102.5q0 -91 -54 -147t-142 -56q-70 0 -108 36t-38 102z" />
<glyph unicode="&#x152;" horiz-adv-x="1812" d="M37 530q0 393 179 597t534 204q58 0 217.5 -12t257.5 -12q134 0 318 12t323 31l22 -33q-61 -215 -94 -408l-287 -18q17 65 17 100q0 52 -36 70t-142 18q-40 0 -53.5 -10.5t-16.5 -44.5l-41 -231l160 -2l219 12l22 -29l-57 -235q-146 6 -236 6l-149 -13l-25 -174 q-9 -80 4.5 -101t73.5 -21q123 0 168.5 39.5t79.5 177.5l266 18l21 -31q-60 -199 -107 -422l-35 -32q-331 20 -643 20q-79 0 -218 -13t-187 -13q-262 0 -408.5 142.5t-146.5 407.5zM502 481q0 -140 30.5 -200t100.5 -60q126 0 147 180l64 498q21 182 -139 182 q-100 0 -151.5 -152t-51.5 -448z" />
<glyph unicode="&#x153;" horiz-adv-x="1525" d="M33 424q0 307 143 458.5t442 151.5q47 0 181 -9t217 -9q221 0 536 35l21 -27q-51 -176 -76 -326l-258 -16q12 49 12 74q0 38 -28 51.5t-109 13.5q-28 0 -37.5 -8t-11.5 -31l-31 -157l129 -2l178 8l21 -25l-47 -198q-117 6 -191 6l-125 -11l-16 -106q-6 -61 4.5 -77.5 t54.5 -16.5q91 0 127 31t62 133l239 14l19 -27q-49 -158 -88 -338l-31 -26q-266 16 -539 16q-63 0 -176 -11t-151 -11q-225 0 -348 112t-123 328zM446 383q0 -112 19 -152.5t70 -40.5q40 0 65 30.5t31 88.5l49 381q7 63 -19 98t-79 35q-136 0 -136 -440z" />
<glyph unicode="&#x178;" horiz-adv-x="1331" d="M82 1141l43 186q237 -4 303 -4q40 0 130.5 3.5t161.5 7.5l71 3l12 -22l-39 -168q-84 0 -84 -55q0 -28 22.5 -124t45.5 -175h28l103 233q36 64 36 94q0 29 -69 29l-4 12l37 162h317q46 0 103 2t91 4l33 2l7 -16l-37 -178q-68 -38 -135 -106t-115 -152l-225 -373 q-27 -49 -37 -89t-17 -102q-9 -72 9 -100.5t75 -28.5q23 0 48.5 2t39.5 4l15 1l8 -13l-41 -192q-301 12 -418 12q-57 0 -160 -4.5t-178 -9.5l-74 -4l39 188q129 9 173.5 40t54.5 122l4 33q11 78 -33 184l-164 407q-41 108 -172 172zM485 1540q0 92 55 148.5t144 56.5 q67 0 104 -36.5t37 -102.5q0 -91 -53.5 -147t-142.5 -56q-70 0 -107 35.5t-37 101.5zM868 1540q0 92 55 148.5t144 56.5q69 0 106 -36.5t37 -102.5q0 -91 -54 -147t-142 -56q-70 0 -108 35.5t-38 101.5z" />
<glyph unicode="&#x2c6;" horiz-adv-x="790" d="M125 1237q78 63 171.5 142.5t147.5 128.5l54 48h55q156 -178 295 -319l-109 -127l-49 -14q-46 36 -205 141q-155 -87 -235 -141l-47 14z" />
<glyph unicode="&#x2dc;" horiz-adv-x="790" d="M86 1186l4 33l191 235l34 8q36 0 153.5 -34.5t145.5 -34.5q21 0 58 29.5t64 59.5l26 29h33l108 -110l-4 -33l-190 -235l-35 -9q-36 0 -153.5 35t-145.5 35q-22 0 -59 -30t-63 -60l-26 -29h-32z" />
<glyph unicode="&#x2000;" horiz-adv-x="930" />
<glyph unicode="&#x2001;" horiz-adv-x="1860" />
<glyph unicode="&#x2002;" horiz-adv-x="930" />
<glyph unicode="&#x2003;" horiz-adv-x="1860" />
<glyph unicode="&#x2004;" horiz-adv-x="620" />
<glyph unicode="&#x2005;" horiz-adv-x="465" />
<glyph unicode="&#x2006;" horiz-adv-x="310" />
<glyph unicode="&#x2007;" horiz-adv-x="310" />
<glyph unicode="&#x2008;" horiz-adv-x="232" />
<glyph unicode="&#x2009;" horiz-adv-x="372" />
<glyph unicode="&#x200a;" horiz-adv-x="103" />
<glyph unicode="&#x2010;" horiz-adv-x="643" d="M55 397l47 217l306 35q58 6 100.5 12t55.5 9l14 2l18 -37l-53 -221l-467 -54z" />
<glyph unicode="&#x2011;" horiz-adv-x="643" d="M55 397l47 217l306 35q58 6 100.5 12t55.5 9l14 2l18 -37l-53 -221l-467 -54z" />
<glyph unicode="&#x2012;" horiz-adv-x="643" d="M55 397l47 217l306 35q58 6 100.5 12t55.5 9l14 2l18 -37l-53 -221l-467 -54z" />
<glyph unicode="&#x2013;" horiz-adv-x="888" d="M-29 444l47 215h484q247 0 416 5l14 -39l-53 -217q-146 0 -441.5 -1t-449.5 -1z" />
<glyph unicode="&#x2014;" horiz-adv-x="1640" d="M-29 444l47 215h803q793 0 846 5l16 -39l-55 -217q-271 0 -811.5 -1t-828.5 -1z" />
<glyph unicode="&#x2018;" horiz-adv-x="532" d="M121 920q0 107 92 223t250 207l119 -95v-51q-60 -43 -95.5 -102t-35.5 -115q0 -41 16.5 -84t42.5 -72l-6 -28q-117 -90 -209 -90q-78 0 -126 56.5t-48 150.5z" />
<glyph unicode="&#x2019;" horiz-adv-x="532" d="M84 807v51q60 41 95.5 100.5t35.5 116.5q0 40 -16 83t-43 73l6 29q118 90 209 90q78 0 126 -56.5t48 -150.5q0 -109 -92.5 -225t-249.5 -205z" />
<glyph unicode="&#x201a;" horiz-adv-x="473" d="M-61 -104q60 43 95.5 102t35.5 115q0 41 -16.5 83t-43.5 72l6 29q117 90 209 90q78 0 126 -56.5t48 -150.5q0 -107 -92 -223t-250 -207l-118 94v52z" />
<glyph unicode="&#x201c;" horiz-adv-x="964" d="M238 920q0 107 92 223t250 207l118 -95v-51q-60 -43 -95.5 -102t-35.5 -115q0 -41 16.5 -83.5t43.5 -72.5l-6 -28q-117 -90 -209 -90q-78 0 -126 56.5t-48 150.5zM672 920q0 107 92 223t250 207l119 -95v-51q-60 -43 -96 -102t-36 -115q0 -41 16.5 -83.5t43.5 -72.5 l-6 -28q-117 -90 -209 -90q-78 0 -126 56.5t-48 150.5z" />
<glyph unicode="&#x201d;" horiz-adv-x="964" d="M211 807v51q60 41 95.5 100.5t35.5 116.5q0 40 -16 83t-43 73l6 29q118 90 209 90q78 0 126 -56.5t48 -150.5q0 -109 -92.5 -225t-249.5 -205zM645 807v51q60 41 95.5 100.5t35.5 116.5q0 40 -16 83t-43 73l6 29q118 90 209 90q78 0 126 -56.5t48 -150.5 q0 -109 -92.5 -225t-249.5 -205z" />
<glyph unicode="&#x201e;" horiz-adv-x="892" d="M-74 -104q60 43 95.5 102t35.5 115q0 41 -16.5 83t-42.5 72l6 29q117 90 209 90q78 0 126 -56.5t48 -150.5q0 -107 -92 -223t-250 -207l-119 94v52zM354 -104q60 43 95.5 102t35.5 115q0 41 -16.5 83t-42.5 72l6 29q117 90 209 90q78 0 126 -56.5t48 -150.5 q0 -107 -92 -223t-250 -207l-119 94v52z" />
<glyph unicode="&#x2022;" horiz-adv-x="675" d="M74 442q0 148 84.5 236t226.5 88q104 0 160.5 -57.5t56.5 -161.5q0 -146 -84 -235t-223 -89q-107 0 -164 56.5t-57 162.5z" />
<glyph unicode="&#x2026;" horiz-adv-x="1390" d="M8 145q0 110 65 177t171 67q79 0 122.5 -44t43.5 -122q0 -108 -64.5 -174.5t-169.5 -66.5q-83 0 -125.5 42t-42.5 121zM467 145q0 110 64.5 177t170.5 67q79 0 122.5 -44t43.5 -122q0 -109 -64.5 -175t-168.5 -66q-83 0 -125.5 42t-42.5 121zM926 145q0 110 64.5 177 t170.5 67q79 0 122.5 -44t43.5 -122q0 -109 -64.5 -175t-168.5 -66q-83 0 -125.5 42t-42.5 121z" />
<glyph unicode="&#x202f;" horiz-adv-x="372" />
<glyph unicode="&#x2039;" horiz-adv-x="536" d="M14 449l6 55q197 190 353 360l119 -71l10 -48q-30 -41 -60.5 -90t-66.5 -110.5t-41 -69.5q48 -146 100 -268l-20 -47l-135 -74q-51 76 -117.5 167t-107.5 143z" />
<glyph unicode="&#x203a;" horiz-adv-x="536" d="M35 205q68 100 166 270q-44 136 -101 268l21 48l135 73q52 -76 118 -166.5t106 -143.5l40 -52l-6 -56q-194 -190 -352 -360l-119 72z" />
<glyph unicode="&#x205f;" horiz-adv-x="465" />
<glyph unicode="&#x20ac;" horiz-adv-x="1103" d="M-23 340l35 137h123q0 41 6 82h-121l-14 12l35 138h137q63 168 209 255t365 87q62 0 154.5 -10.5t153.5 -21.5l62 -11l11 -33q-52 -143 -89 -336l-249 -14q16 87 16 116q0 44 -31 68.5t-88 24.5q-115 0 -157 -125l231 8l14 -17l-30 -139l-242 -2q-4 -50 -4 -82h2l231 8 l15 -16l-29 -139l-211 -2q10 -66 40.5 -95.5t84.5 -29.5q65 0 98.5 38.5t57.5 147.5l249 17q-43 -186 -61 -338l-25 -25q-19 -7 -52 -16.5t-131.5 -26t-192.5 -16.5q-189 0 -302.5 88.5t-138.5 255.5h-147z" />
<glyph unicode="&#x2122;" horiz-adv-x="1140" d="M8 1110q19 121 31 213l12 8l99 -8h251l105 8l8 -8l-20 -207l-115 -6q3 39 3.5 57t-2 33t-8.5 19t-18 4q-32 -256 -32 -277q0 -20 7.5 -28.5t26.5 -8.5l39 2l4 -6l-16 -76q-123 5 -170 5l-174 -9l16 76q47 4 64 16.5t22 43.5l31 262q-19 0 -28.5 -21t-22.5 -86zM453 827 l16 74q22 1 33.5 12.5t17.5 36.5q8 33 34 149.5t26 131.5q0 8 -7.5 11.5t-35.5 6.5l-9 6l19 72q88 -4 123 -4l137 4q0 -41 3.5 -95t7.5 -88l3 -34h13q50 125 79 213q139 0 168 2l72 2q1 0 3 -1t3 -1l-16 -74q-32 0 -41 -6.5t-12 -30.5q-5 -42 -11 -243q-2 -36 4 -50t23 -14 l24 2l7 -8l-17 -70q-51 3 -90 3q-147 0 -168 -7l19 76q23 1 33 9.5t12 27.5l20 145h-12q-67 -157 -103 -254l-118 -8q-38 256 -39 262h-10q-21 -149 -21 -157q0 -23 23 -23l20 2l8 -6l-20 -70q-94 3 -121 3z" />
<glyph unicode="&#x25fc;" horiz-adv-x="1044" d="M0 0v1044h1044v-1044h-1044z" />
<glyph unicode="&#xfb01;" horiz-adv-x="1597" d="M-35 -16l35 161q61 7 86.5 37t34.5 103l67 508q6 52 -0.5 69t-31.5 17l-41 -2l-21 24l33 137q254 -6 414 -6q321 0 465 21l22 -29q-42 -181 -67 -326l-259 -14q11 45 11 70q0 37 -21.5 52t-73.5 15q-27 0 -36.5 -7.5t-14.5 -31.5l-35 -184l132 -2l174 8l20 -24l-47 -199 q-114 4 -188 4q-7 0 -123 -8l-13 -80q-6 -57 5.5 -75.5t52.5 -18.5q24 0 47 3.5t34 7.5l11 3l27 -33l-46 -188q-196 4 -272 4q-83 0 -178 -4t-149 -8zM930 -6l28 147q67 13 90 38t29 91l68 529q6 49 -4.5 64.5t-44.5 15.5h-37q-9 12 -15 24l29 129h279l303 6l-31 -155 q-56 -7 -72.5 -21.5t-27.5 -60.5q-21 -103 -54.5 -324.5t-33.5 -265.5q0 -34 9 -46.5t32 -12.5l49 4l10 -19l-33 -143q-214 6 -284 6z" />
<glyph unicode="&#xfb02;" horiz-adv-x="1921" d="M-35 -16l35 161q61 7 86.5 37t34.5 103l67 508q6 52 -0.5 69t-31.5 17l-41 -2l-21 24l33 137q254 -6 414 -6q321 0 465 21l22 -29q-42 -181 -67 -326l-259 -14q11 45 11 70q0 37 -21.5 52t-73.5 15q-27 0 -36.5 -7.5t-14.5 -31.5l-35 -184l132 -2l174 8l20 -24l-47 -199 q-114 4 -188 4q-7 0 -123 -8l-13 -80q-6 -57 5.5 -75.5t52.5 -18.5q24 0 47 3.5t34 7.5l11 3l27 -33l-46 -188q-196 4 -272 4q-83 0 -178 -4t-149 -8zM922 -16l32 159q63 11 89.5 40.5t33.5 101.5l66 514q6 49 -3.5 64.5t-45.5 15.5h-41l-13 24l29 129h281l372 6l-41 -170 q-87 -7 -120.5 -22.5t-38.5 -48.5q-24 -130 -53 -315.5t-29 -231.5q0 -47 39 -47q53 0 83 22t50.5 77.5t38.5 166.5l239 23q16 -22 19 -27q-49 -216 -92 -447l-31 -28q-240 10 -494 10q-79 0 -171.5 -4t-145.5 -8z" />
</font>
</defs>
</svg>
